<?xml version="1.0" encoding="UTF-8"?>
<svg xmlns="http://www.w3.org/2000/svg" xmlns:xlink="http://www.w3.org/1999/xlink" width="151px" height="199px" viewBox="0 0 151 199" version="1.1" class="w-full">
  <title>Page 1</title>
  <desc>Created with Sketch.</desc>
  <defs>
    <path id="path-1" d="M0,1.45631068 L150.994175,1.45631068 L150.994175,200 L0,200"></path>
  </defs>
  <g id="Helping-You-Plan" stroke="none" stroke-width="1" fill="none" fill-rule="evenodd">
    <g id="Desktop----Getting-Around" transform="translate(-984.000000, -3434.000000)">
      <g id="Accessibility" transform="translate(0.000000, 3255.000000)">
        <g id="Copy" transform="translate(76.000000, 82.000000)">
          <g id="Page-1" transform="translate(908.000000, 96.000000)">
            <path d="M129.125825,7.2815534 C120.292816,7.2815534 113.106408,14.4679612 113.106408,23.3009709 C113.106408,32.1339806 120.292816,39.3203883 129.125825,39.3203883 C137.958835,39.3203883 145.145243,32.1339806 145.145243,23.3009709 C145.145243,14.4679612 137.958835,7.2815534 129.125825,7.2815534 M129.125825,45.1456311 C117.081165,45.1456311 107.281165,35.3456311 107.281165,23.3009709 C107.281165,11.2563107 117.081165,1.45631068 129.125825,1.45631068 C141.170485,1.45631068 150.970485,11.2563107 150.970485,23.3009709 C150.970485,35.3456311 141.170485,45.1456311 129.125825,45.1456311" id="Fill-1" fill="#E0232F"></path>
            <g id="Group-5">
              <g id="Clip-4"></g>
              <path d="M60.0316505,14.864466 C57.4180583,14.864466 54.8258252,15.8062136 52.781165,17.6372816 L26.7054369,41.0198058 C21.6141748,45.5867961 21.5287379,53.5343689 26.5229126,58.2081553 C28.7598058,60.3013592 31.6219417,61.3518447 34.4879612,61.3518447 C37.2219417,61.3518447 39.9598058,60.3945631 42.1598058,58.4702913 L61.6491262,41.4236893 L76.8607767,50.4042718 L47.6821359,83.5673786 C41.4704854,84.7518447 35.604466,86.9149515 30.2530097,89.8897087 C23.9869903,93.3712621 22.6918447,101.815922 27.7617476,106.885825 C29.8141748,108.940194 32.5248544,109.980971 35.2782524,109.980971 C37.1267961,109.980971 38.9947573,109.51301 40.6976699,108.565437 C46.0471845,105.588738 52.1928155,103.883883 58.7384466,103.883883 C60.3151456,103.883883 61.9170874,103.982913 63.5365049,104.186796 C80.258835,106.295534 93.7054369,119.744078 95.8141748,136.46835 C96.8646602,144.800388 95.1287379,152.664466 91.435534,159.303301 C89.0743689,163.544078 89.6821359,168.806214 93.1132039,172.239223 L93.1132039,172.239223 C95.2297087,174.355728 97.9345631,175.363495 100.621942,175.363495 C104.367573,175.363495 108.076311,173.406214 110.103495,169.761553 C114.798641,161.322718 117.474369,151.606214 117.474369,141.262524 C117.474369,131.476117 115.068544,122.256699 110.835534,114.142136 L126.37534,113.592621 L123.02,157.584854 C122.519029,164.151845 127.210291,170.225631 133.767573,170.823689 C134.14233,170.856699 134.513204,170.874175 134.882136,170.874175 C141.124854,170.874175 146.313204,166.058641 146.777282,159.831456 L150.961748,103.753786 C151.478252,96.8198058 145.983107,90.9363107 139.070485,90.9363107 C138.971456,90.9363107 138.870485,90.9382524 138.769515,90.9401942 L99.5132039,91.9091262 L121.196699,67.1304854 C126.42,61.1596117 124.961748,51.9149515 118.153981,47.841165 L65.6025243,16.4042718 C63.8743689,15.3712621 61.9481553,14.864466 60.0316505,14.864466 M60.0316505,20.6897087 C60.9384466,20.6897087 61.8316505,20.9363107 62.612233,21.4023301 L115.163689,52.841165 C116.922913,53.8916505 118.115146,55.656699 118.433592,57.6819417 C118.752039,59.7052427 118.161748,61.7518447 116.812233,63.2935922 L95.1306796,88.0741748 L86.3908738,98.0605825 L99.6568932,97.7324272 L138.913204,96.7634951 L139.070485,96.7615534 C140.783107,96.7615534 142.371456,97.4547573 143.540388,98.7149515 C144.707379,99.9732039 145.280194,101.608155 145.152039,103.320777 L140.969515,159.398447 C140.732621,162.567379 138.058835,165.048932 134.882136,165.048932 C134.687961,165.048932 134.491845,165.039223 134.295728,165.021748 C131.066602,164.728544 128.561748,161.52466 128.827767,158.027573 L132.183107,114.03534 L132.678252,107.540194 L126.169515,107.771262 L110.629709,108.320777 L101.398641,108.64699 L105.670485,116.837282 C109.637476,124.441165 111.649126,132.660583 111.649126,141.262524 C111.649126,150.250874 109.355922,159.126602 105.012233,166.930485 C104.103495,168.563495 102.462718,169.538252 100.621942,169.538252 C99.7229126,169.538252 98.404466,169.29165 97.2316505,168.120777 C95.6801942,166.56932 95.396699,164.163495 96.5248544,162.134369 C101.002524,154.087767 102.755922,144.961553 101.592816,135.738252 C99.1714563,116.530485 83.4724272,100.829515 64.2646602,98.4081553 C62.4297087,98.1751456 60.5695146,98.0586408 58.7384466,98.0586408 C51.451068,98.0586408 44.2335922,99.9304854 37.8646602,103.474175 C37.0627184,103.920777 36.1675728,104.155728 35.2782524,104.155728 C33.9831068,104.155728 32.7753398,103.662524 31.8801942,102.767379 C30.4005825,101.287767 30.3869903,99.5790291 30.5112621,98.6935922 C30.7326214,97.1207767 31.6685437,95.7673786 33.0821359,94.9809709 C37.988932,92.2547573 43.2666019,90.3401942 48.7733981,89.2897087 L50.7345631,88.9168932 L52.0549515,87.4159223 L81.2335922,54.2528155 L85.8840777,48.9673786 L79.8219417,45.3887379 L64.612233,36.4081553 L60.9850485,34.2664078 L57.8141748,37.0392233 L38.3248544,54.0858252 C37.2627184,55.0159223 35.8996117,55.5266019 34.4879612,55.5266019 C33.0025243,55.5266019 31.5869903,54.9693204 30.5034951,53.9537864 C29.2957282,52.8236893 28.6394175,51.2897087 28.6568932,49.6353398 C28.6743689,47.9809709 29.3636893,46.4625243 30.5947573,45.3576699 L56.6704854,21.9751456 C57.5947573,21.1460194 58.788932,20.6897087 60.0316505,20.6897087" id="Fill-3" fill="#E0232F"></path>
            </g>
            <path d="M15.4207767,109.913981 C11.4576699,109.913981 7.54893204,112.104272 5.64407767,116.113981 C1.43048544,124.989709 -0.621941748,135.088738 0.166407767,145.737282 C2.29456311,174.447961 25.5508738,197.704272 54.2615534,199.834369 C55.764466,199.945049 57.2576699,199.999417 58.7372816,199.999417 C67.7372816,199.999417 76.2615534,197.974175 83.8848544,194.354757 C90.6071845,191.164466 92.218835,182.327573 86.956699,177.065437 L86.9547573,177.063495 C84.9062136,175.014951 82.187767,173.960583 79.4207767,173.960583 C77.8091262,173.960583 76.1819417,174.317864 74.6576699,175.044078 C69.8285437,177.343107 64.4363107,178.640194 58.7372816,178.640194 C57.1586408,178.640194 55.556699,178.541165 53.9372816,178.33534 C37.2382524,176.218835 23.7819417,162.764466 21.6634951,146.065437 C20.7178641,138.595534 22.018835,131.510097 24.956699,125.341165 C26.9295146,121.201359 26.18,116.286796 22.9372816,113.044078 L22.9353398,113.042136 C20.811068,110.917864 18.1042718,109.913981 15.4207767,109.913981 M15.4207767,115.739223 C16.3198058,115.739223 17.6401942,115.985825 18.818835,117.164466 C20.2926214,118.638252 20.6363107,120.863495 19.6984466,122.836311 C16.1586408,130.267379 14.8401942,138.554757 15.8848544,146.797476 C18.3198058,165.987767 34.0149515,181.682913 53.2052427,184.115922 C55.0440777,184.34699 56.9042718,184.465437 58.7372816,184.465437 C65.1625243,184.465437 71.3625243,183.065437 77.1625243,180.30233 C77.8829126,179.960583 78.6421359,179.785825 79.4207767,179.785825 C80.7217476,179.785825 81.9353398,180.282913 82.8363107,181.183883 C83.9664078,182.312039 84.4576699,183.859612 84.1858252,185.428544 C83.9081553,187.046019 82.8867961,188.381942 81.3858252,189.092621 C74.2829126,192.465437 66.6634951,194.174175 58.7372816,194.174175 C57.3994175,194.174175 56.0363107,194.123689 54.6926214,194.02466 C28.8343689,192.108155 7.89067961,171.162524 5.97417476,145.306214 C5.29067961,136.079029 6.99747573,126.847961 10.9081553,118.61301 C11.9120388,116.494563 13.8984466,115.739223 15.4207767,115.739223" id="Fill-6" fill="#E0232F"></path>
          </g>
        </g>
      </g>
    </g>
  </g>
</svg>
