<?xml version="1.0" encoding="UTF-8"?>
<svg xmlns="http://www.w3.org/2000/svg" xmlns:xlink="http://www.w3.org/1999/xlink" width="501px" height="150px" viewBox="0 0 501 150" version="1.1" class="w-full">
  <title>Page 1</title>
  <desc>Created with Sketch.</desc>
  <defs>
    <path id="path-1" d="M0,0.252133581 L500.567254,0.252133581 L500.567254,150 L0,150"></path>
    <path id="path-3" d="M0,0.252133581 L500.567254,0.252133581 L500.567254,150 L0,150 L0,0.252133581 Z"></path>
  </defs>
  <g id="Helping-You-Plan" stroke="none" stroke-width="1" fill="none" fill-rule="evenodd">
    <g id="Desktop----Getting-Around" transform="translate(-810.000000, -1331.000000)">
      <g id="Auto-&amp;-Rv-Travel" transform="translate(0.000000, 1249.000000)">
        <g id="Page-1" transform="translate(810.000000, 82.000000)">
          <g id="Group-3">
            <g id="Clip-2"></g>
            <path d="M23.820974,130.437801 L4.73062152,130.437801 C2.12217996,130.437801 -8.34879406e-05,128.315538 -8.34879406e-05,125.707096 L-8.34879406e-05,114.20385 C-8.34879406e-05,111.59513 2.12217996,109.473145 4.73062152,109.473145 C5.62282931,109.473145 6.39898887,108.869249 6.61856215,108.004592 L9.24843228,97.6398423 C11.188692,89.9923469 18.0508442,84.4493043 25.9354453,84.1601577 L65.9787662,82.6921614 C67.5583581,82.6339981 68.9968553,81.7963358 69.8267254,80.4513451 L81.7232004,61.1711967 C83.5618831,58.1909555 86.7502876,56.4118275 90.2520501,56.4118275 L184.401957,56.4118275 C190.75205,56.4118275 195.918284,61.5780612 195.918284,67.9284323 L195.918284,76.8989332 C195.918284,78.0830705 196.881735,79.046243 198.065872,79.046243 L203.418562,79.046243 C206.137208,79.046243 208.348803,81.2581169 208.348803,83.9764842 L208.348803,106.040677 C208.348803,108.853942 206.060121,111.142904 203.246855,111.142904 C201.968098,111.142904 200.92756,112.183163 200.92756,113.46192 L200.92756,120.710622 C200.92756,123.414239 198.727931,125.614147 196.024314,125.614147 L183.596299,125.614147 C182.827653,125.614147 182.204833,124.991048 182.204833,124.222681 C182.204833,123.454035 182.827653,122.831215 183.596299,122.831215 L196.024314,122.831215 C197.193423,122.831215 198.144629,121.880009 198.144629,120.710622 L198.144629,113.46192 C198.144629,110.648655 200.43359,108.359972 203.246855,108.359972 C204.525612,108.359972 205.565872,107.319434 205.565872,106.040677 L205.565872,83.9764842 C205.565872,82.7923469 204.602699,81.8291744 203.418562,81.8291744 L198.065872,81.8291744 C195.347226,81.8291744 193.135353,79.6175788 193.135353,76.8989332 L193.135353,67.9284323 C193.135353,63.1125696 189.217542,59.1947588 184.401957,59.1947588 L90.2520501,59.1947588 C87.7226438,59.1947588 85.4197681,60.4799165 84.0911967,62.6325139 L72.195,81.9126623 C70.8764471,84.0499536 68.5905473,85.3810297 66.0808998,85.4731447 L26.0375788,86.9414193 C19.3791373,87.1854824 13.5845176,91.8663729 11.9459276,98.3244434 L9.31605751,108.688915 C8.78340445,110.788915 6.89769017,112.256076 4.73062152,112.256076 C3.65668831,112.256076 2.78284787,113.129638 2.78284787,114.20385 L2.78284787,125.707096 C2.78284787,126.78103 3.65668831,127.65487 4.73062152,127.65487 L23.820974,127.65487 C24.5896197,127.65487 25.2124397,128.277968 25.2124397,129.046336 C25.2124397,129.814703 24.5896197,130.437801 23.820974,130.437801" id="Fill-1" fill="#E0232F"></path>
          </g>
          <path d="M144.831456,133.127922 L63.0583581,133.127922 C62.2897124,133.127922 61.6668924,132.504824 61.6668924,131.736456 C61.6668924,130.968089 62.2897124,130.344991 63.0583581,130.344991 L144.831456,130.344991 C145.600102,130.344991 146.222922,130.968089 146.222922,131.736456 C146.222922,132.504824 145.600102,133.127922 144.831456,133.127922" id="Fill-4" fill="#E0232F"></path>
          <path d="M82.1108905,84.7977273 L114.033618,84.7977273 L114.033618,65.3172078 L98.1664564,65.3172078 C95.6353803,65.3172078 93.3305566,66.603757 92.0017069,68.7583024 L82.1108905,84.7977273 Z M115.425083,87.5806586 L79.6179406,87.5806586 C79.1133952,87.5806586 78.6489239,87.3079314 78.4029128,86.8673933 C78.15718,86.4268553 78.1688683,85.8880798 78.433525,85.4586735 L89.6328757,67.2975417 C91.4723933,64.3147959 94.6627458,62.5342764 98.1664564,62.5342764 L115.425083,62.5342764 C116.193729,62.5342764 116.816549,63.1573748 116.816549,63.9257421 L116.816549,86.1891929 C116.816549,86.9575603 116.193729,87.5806586 115.425083,87.5806586 L115.425083,87.5806586 Z" id="Fill-6" fill="#E0232F"></path>
          <g id="Clip-9"></g>
          <path d="M123.588312,84.7978664 L145.109833,84.7978664 L145.109833,65.3173469 L123.588312,65.3173469 L123.588312,84.7978664 Z M146.501299,87.5807978 L122.196846,87.5807978 C121.4282,87.5807978 120.80538,86.9576994 120.80538,86.1893321 L120.80538,63.9258813 C120.80538,63.1572356 121.4282,62.5344156 122.196846,62.5344156 L146.501299,62.5344156 C147.269666,62.5344156 147.892764,63.1572356 147.892764,63.9258813 L147.892764,86.1893321 C147.892764,86.9576994 147.269666,87.5807978 146.501299,87.5807978 L146.501299,87.5807978 Z" id="Fill-8" fill="#E0232F"></path>
          <path d="M154.293423,84.7977273 L184.457616,84.7977273 L184.650195,67.7333488 C184.335167,66.3260204 183.084796,65.3172078 181.631549,65.3172078 L154.293423,65.3172078 L154.293423,84.7977273 Z M185.833219,87.5806586 L152.901957,87.5806586 C152.133312,87.5806586 151.510492,86.9575603 151.510492,86.1891929 L151.510492,63.9257421 C151.510492,63.1573748 152.133312,62.5342764 152.901957,62.5342764 L181.631549,62.5342764 C184.469583,62.5342764 186.900473,64.5602505 187.411976,67.3515306 C187.427839,67.4391929 187.435631,67.528525 187.434796,67.6181354 L187.224685,86.2050557 C187.216058,86.9673006 186.595464,87.5806586 185.833219,87.5806586 L185.833219,87.5806586 Z" id="Fill-10" fill="#E0232F"></path>
          <path d="M43.4398052,110.762699 C33.3892486,110.762699 25.2124397,118.939508 25.2124397,128.990065 C25.2124397,139.040343 33.3892486,147.217152 43.4398052,147.217152 C53.4900835,147.217152 61.6668924,139.040343 61.6668924,128.990065 C61.6668924,118.939508 53.4900835,110.762699 43.4398052,110.762699 M43.4398052,150.000083 C31.8547403,150.000083 22.4295083,140.574852 22.4295083,128.990065 C22.4295083,117.405 31.8547403,107.979768 43.4398052,107.979768 C55.0248701,107.979768 64.4498237,117.405 64.4498237,128.990065 C64.4498237,140.574852 55.0248701,150.000083 43.4398052,150.000083" id="Fill-11" fill="#E0232F"></path>
          <path d="M164.450037,110.762699 C154.399759,110.762699 146.22295,118.939508 146.22295,128.990065 C146.22295,139.040343 154.399759,147.217152 164.450037,147.217152 C174.500315,147.217152 182.677124,139.040343 182.677124,128.990065 C182.677124,118.939508 174.500315,110.762699 164.450037,110.762699 M164.450037,150.000083 C152.864972,150.000083 143.440019,140.574852 143.440019,128.990065 C143.440019,117.405 152.864972,107.979768 164.450037,107.979768 C176.035102,107.979768 185.460056,117.405 185.460056,128.990065 C185.460056,140.574852 176.035102,150.000083 164.450037,150.000083" id="Fill-12" fill="#E0232F"></path>
          <path d="M11.8649722,99.3737477 L9.96478664,106.862894 C12.5005937,106.591002 14.4464193,105.720779 15.7630241,104.265306 C17.2237848,102.650649 17.6342672,100.645269 17.7375139,99.3737477 L11.8649722,99.3737477 Z M8.15282004,109.737941 C7.72341373,109.737941 7.31821892,109.539796 7.05467532,109.201113 C6.79113173,108.862152 6.6987384,108.420501 6.80393321,108.004453 L9.43380334,97.6402597 C9.59020408,97.0230056 10.1456772,96.5908163 10.7824119,96.5908163 L19.1356586,96.5908163 C19.8503154,96.5908163 20.4489239,97.1320965 20.520167,97.8434137 C20.5396475,98.0384972 20.9637662,102.664564 17.826846,106.132375 C15.662282,108.524861 12.4073655,109.737941 8.15282004,109.737941 L8.15282004,109.737941 Z" id="Fill-13" fill="#E0232F"></path>
          <path d="M115.425056,96.1612987 L110.044814,96.1612987 C109.276169,96.1612987 108.653349,95.5382004 108.653349,94.769833 C108.653349,94.0014657 109.276169,93.3783673 110.044814,93.3783673 L115.425056,93.3783673 C116.193701,93.3783673 116.816521,94.0014657 116.816521,94.769833 C116.816521,95.5382004 116.193701,96.1612987 115.425056,96.1612987" id="Fill-14" fill="#E0232F"></path>
          <path d="M325.875111,21.2131447 L403.921586,21.2131447 C449.673256,21.2131447 486.762217,58.3021058 486.762217,104.053776 L486.762217,123.066206 C486.762217,128.386614 482.449508,132.699323 477.129378,132.699323 L252.667319,132.699323 C247.347189,132.699323 243.034481,128.386614 243.034481,123.066206 L243.034481,104.053776 C243.034481,58.3021058 280.123442,21.2131447 325.875111,21.2131447" id="Fill-15" fill="#FFFFFF"></path>
          <path d="M325.875,22.6045269 C304.119156,22.6045269 283.665445,31.0766048 268.281957,46.4606494 C252.898191,61.8441373 244.425835,82.2978479 244.425835,104.05397 L244.425835,123.066401 C244.425835,127.610649 248.122959,131.307774 252.667208,131.307774 L477.129267,131.307774 C481.673794,131.307774 485.370918,127.610649 485.370918,123.066401 L485.370918,104.05397 C485.370918,82.2978479 476.89884,61.8441373 461.514796,46.4606494 C446.131308,31.0766048 425.677597,22.6045269 403.921475,22.6045269 L325.875,22.6045269 Z M241.642904,123.066401 L241.642904,104.05397 C241.642904,81.5545269 250.404685,60.4020223 266.314147,44.4925603 C282.22333,28.5830983 303.375835,19.8215955 325.875,19.8215955 L403.921475,19.8215955 C426.420918,19.8215955 447.573423,28.5830983 463.482885,44.4925603 C479.392347,60.4020223 488.15385,81.5545269 488.15385,104.05397 L488.15385,123.066401 C488.15385,129.145436 483.208302,134.090705 477.129267,134.090705 L252.667208,134.090705 C246.588451,134.090705 241.642904,129.145436 241.642904,123.066401 L241.642904,123.066401 Z" id="Fill-16" fill="#E0232F"></path>
          <path d="M302.92859,132.699378 L427.926735,132.699378 L427.926735,39.9270223 C427.926735,29.5914935 419.548163,21.7697866 409.212913,21.7697866 L321.642412,21.7697866 C311.307161,21.7697866 302.92859,29.5914935 302.92859,39.9270223 L302.92859,132.699378 Z" id="Fill-17" fill="#FFFFFF"></path>
          <path d="M426.535325,39.9271614 C426.535325,30.5255844 418.926234,23.1611132 409.212968,23.1611132 L321.642468,23.1611132 C311.929202,23.1611132 304.320111,30.5255844 304.320111,39.9271614 L304.320111,131.307774 L426.535325,131.307774 L426.535325,39.9271614 Z M301.53718,132.699239 L301.53718,39.9271614 C301.53718,28.9649165 310.368256,20.3781818 321.642468,20.3781818 L409.212968,20.3781818 C420.48718,20.3781818 429.318256,28.9649165 429.318256,39.9271614 L429.318256,132.699239 C429.318256,133.467885 428.695436,134.090705 427.92679,134.090705 L302.928646,134.090705 C302.16,134.090705 301.53718,133.467885 301.53718,132.699239 L301.53718,132.699239 Z" id="Fill-18" fill="#E0232F"></path>
          <path d="M324.517987,48.4916883 L346.532644,48.4916883 C351.905928,48.4916883 356.261772,52.8475325 356.261772,58.2208163 L356.261772,132.699295 L314.788859,132.699295 L314.788859,58.2208163 C314.788859,52.8475325 319.144703,48.4916883 324.517987,48.4916883" id="Fill-19" fill="#FFFFFF"></path>
          <path d="M354.870501,58.220872 C354.870501,53.6234694 351.130241,49.8832096 346.532839,49.8832096 L324.518182,49.8832096 C319.920779,49.8832096 316.180519,53.6234694 316.180519,58.220872 L316.180519,131.307885 L354.870501,131.307885 L354.870501,58.220872 Z M313.397588,132.699351 L313.397588,58.220872 C313.397588,52.088961 318.385993,47.1002783 324.518182,47.1002783 L346.532839,47.1002783 C352.66475,47.1002783 357.653432,52.088961 357.653432,58.220872 L357.653432,132.699351 C357.653432,133.467996 357.030612,134.090816 356.261967,134.090816 L314.789054,134.090816 C314.020408,134.090816 313.397588,133.467996 313.397588,132.699351 L313.397588,132.699351 Z" id="Fill-20" fill="#E0232F"></path>
          <path id="Fill-21" fill="#FFFFFF" d="M427.926707,74.7984045 L473.593219,74.7984045 L481.512607,74.7984045"></path>
          <path d="M427.92679,76.1898145 L481.51269,76.1898145 C482.281058,76.1898145 482.904156,75.5669944 482.904156,74.7983488 C482.904156,74.0297032 482.281058,73.4068831 481.51269,73.4068831 L427.92679,73.4068831 C427.158145,73.4068831 426.535325,74.0297032 426.535325,74.7983488 C426.535325,75.5669944 427.158145,76.1898145 427.92679,76.1898145" id="Fill-22" fill="#E0232F"></path>
          <path id="Fill-23" fill="#FFFFFF" d="M302.92859,74.7984045 L249.376642,74.7984045"></path>
          <path d="M249.376475,76.1898145 L302.928701,76.1898145 C303.697069,76.1898145 304.320167,75.5669944 304.320167,74.7983488 C304.320167,74.0297032 303.697069,73.4068831 302.928701,73.4068831 L249.376475,73.4068831 C248.607829,73.4068831 247.985009,74.0297032 247.985009,74.7983488 C247.985009,75.5669944 248.607829,76.1898145 249.376475,76.1898145" id="Fill-24" fill="#E0232F"></path>
          <path d="M415.205983,84.6654267 L369.544202,84.6654267 L369.544202,59.759026 L409.276391,59.759026 L415.205983,84.6654267 Z" id="Fill-25" fill="#FFFFFF"></path>
          <path d="M408.177495,61.1502968 L370.935473,61.1502968 L370.935473,83.2740445 L413.444471,83.2740445 L408.177495,61.1502968 Z M368.152542,84.6655102 L368.152542,59.7588312 C368.152542,58.9901855 368.775362,58.3673655 369.544007,58.3673655 L409.276475,58.3673655 C409.921002,58.3673655 410.480928,58.8098516 410.630093,59.4365677 L416.559685,84.3432468 C416.658479,84.7573469 416.561911,85.1937106 416.298089,85.5282189 C416.033989,85.8621707 415.631855,86.0569759 415.206067,86.0569759 L369.544007,86.0569759 C368.775362,86.0569759 368.152542,85.4341558 368.152542,84.6655102 L368.152542,84.6655102 Z" id="Fill-26" fill="#E0232F"></path>
          <path d="M493.521345,124.397226 L497.121067,124.397226 C498.255946,124.397226 499.175705,123.477189 499.175705,122.342588 L499.175705,92.6503803 C499.175705,91.5155009 498.255946,90.5954638 497.121067,90.5954638 L493.521345,90.5954638 C492.386466,90.5954638 491.466707,91.5155009 491.466707,92.6503803 L491.466707,122.342588 C491.466707,123.477189 492.386466,124.397226 493.521345,124.397226" id="Fill-27" fill="#FFFFFF"></path>
          <path d="M493.521345,91.987013 C493.155668,91.987013 492.857894,92.2845083 492.857894,92.6504638 L492.857894,122.342393 C492.857894,122.708349 493.155668,123.005844 493.521345,123.005844 L497.121067,123.005844 C497.486744,123.005844 497.784239,122.708349 497.784239,122.342393 L497.784239,92.6504638 C497.784239,92.2845083 497.486744,91.987013 497.121067,91.987013 L493.521345,91.987013 Z M490.074963,122.342393 L490.074963,92.6504638 C490.074963,90.7502783 491.62116,89.2040816 493.521345,89.2040816 L497.121067,89.2040816 C499.021252,89.2040816 500.567171,90.7502783 500.567171,92.6504638 L500.567171,122.342393 C500.567171,124.242579 499.021252,125.788776 497.121067,125.788776 L493.521345,125.788776 C491.62116,125.788776 490.074963,124.242579 490.074963,122.342393 L490.074963,122.342393 Z" id="Fill-28" fill="#E0232F"></path>
          <path id="Fill-29" fill="#FFFFFF" d="M427.926707,40.6470223 L302.928562,40.6470223"></path>
          <path d="M302.92859,42.0385714 L427.926735,42.0385714 C428.69538,42.0385714 429.3182,41.4157514 429.3182,40.6471058 C429.3182,39.8784601 428.69538,39.2556401 427.926735,39.2556401 L302.92859,39.2556401 C302.159944,39.2556401 301.537124,39.8784601 301.537124,40.6471058 C301.537124,41.4157514 302.159944,42.0385714 302.92859,42.0385714" id="Fill-30" fill="#E0232F"></path>
          <path d="M329.021243,21.2131725 L350.962709,21.2131725 L350.962709,13.5038961 L329.021243,13.5038961 L329.021243,21.2131725 Z" id="Fill-31" fill="#E0232F"></path>
          <path d="M349.571243,14.8953618 L330.41243,14.8953618 L330.41243,19.8214286 L349.571243,19.8214286 L349.571243,14.8953618 Z M327.629499,21.2131725 L327.629499,13.5038961 C327.629499,12.7355288 328.252597,12.1124304 329.020965,12.1124304 L350.962709,12.1124304 C351.731354,12.1124304 352.354174,12.7355288 352.354174,13.5038961 L352.354174,21.2131725 C352.354174,21.9815399 351.731354,22.6046382 350.962709,22.6046382 L329.020965,22.6046382 C328.252597,22.6046382 327.629499,21.9815399 327.629499,21.2131725 L327.629499,21.2131725 Z" id="Fill-32" fill="#E0232F"></path>
          <path d="M350.96257,13.5039796 L329.021104,1.64368275" id="Fill-33" fill="#FFFFFF"></path>
          <path d="M350.961345,14.8957514 C351.45615,14.8957514 351.935093,14.6313729 352.18667,14.1657885 C352.552347,13.4895362 352.300492,12.6454731 351.624518,12.2800742 L329.682774,0.419499072 C329.005686,0.0546567718 328.161902,0.306233766 327.797059,0.981929499 C327.431382,1.65818182 327.683237,2.5022449 328.359212,2.86764378 L350.300955,14.7279406 C350.511345,14.8417625 350.737876,14.8957514 350.961345,14.8957514" id="Fill-34" fill="#E0232F"></path>
          <path id="Fill-35" fill="#FFFFFF" d="M345.984072,65.2850649 L325.033052,65.2850649"></path>
          <path d="M325.033052,66.676475 L345.984072,66.676475 C346.752718,66.676475 347.375538,66.0536549 347.375538,65.2850093 C347.375538,64.5163636 346.752718,63.8935436 345.984072,63.8935436 L325.033052,63.8935436 C324.264406,63.8935436 323.641586,64.5163636 323.641586,65.2850093 C323.641586,66.0536549 324.264406,66.676475 325.033052,66.676475" id="Fill-36" fill="#E0232F"></path>
          <path id="Fill-37" fill="#FFFFFF" d="M345.984072,72.4004917 L325.033052,72.4004917"></path>
          <path d="M325.033052,73.7919573 L345.984072,73.7919573 C346.752718,73.7919573 347.375538,73.1691373 347.375538,72.4004917 C347.375538,71.631846 346.752718,71.009026 345.984072,71.009026 L325.033052,71.009026 C324.264406,71.009026 323.641586,71.631846 323.641586,72.4004917 C323.641586,73.1691373 324.264406,73.7919573 325.033052,73.7919573" id="Fill-38" fill="#E0232F"></path>
          <path id="Fill-39" fill="#FFFFFF" d="M345.984072,79.5159462 L325.033052,79.5159462"></path>
          <path d="M325.033052,80.9074675 L345.984072,80.9074675 C346.752718,80.9074675 347.375538,80.2846475 347.375538,79.5160019 C347.375538,78.7473562 346.752718,78.1245362 345.984072,78.1245362 L325.033052,78.1245362 C324.264406,78.1245362 323.641586,78.7473562 323.641586,79.5160019 C323.641586,80.2846475 324.264406,80.9074675 325.033052,80.9074675" id="Fill-40" fill="#E0232F"></path>
          <path d="M321.475353,98.8857328 C321.475353,100.850482 323.068302,102.443432 325.033052,102.443432 C326.997801,102.443432 328.590751,100.850482 328.590751,98.8857328 C328.590751,96.9209833 326.997801,95.3280334 325.033052,95.3280334 C323.068302,95.3280334 321.475353,96.9209833 321.475353,98.8857328" id="Fill-41" fill="#E0232F"></path>
          <path d="M390.060195,59.7589147 L395.989787,84.6653154" id="Fill-42" fill="#FFFFFF"></path>
          <path d="M395.988562,86.0572542 C396.095148,86.0572542 396.203404,86.0450093 396.311939,86.019128 C397.059712,85.8412987 397.521401,85.0907421 397.343293,84.3432468 L391.41398,59.4365677 C391.235872,58.6890724 390.486429,58.227384 389.73782,58.4052134 C388.990325,58.5830427 388.528358,59.3335993 388.706466,60.0810946 L394.636058,84.9877737 C394.788284,85.627013 395.358785,86.0572542 395.988562,86.0572542" id="Fill-43" fill="#E0232F"></path>
          <path d="M486.906401,111.350928 L490.595176,111.350928 L490.595176,103.641651 L486.906401,103.641651 L486.906401,111.350928 Z" id="Fill-44" fill="#E0232F"></path>
          <path d="M489.203711,105.033395 L488.297866,105.033395 L488.297866,109.959462 L489.203711,109.959462 L489.203711,105.033395 Z M485.514935,111.350928 L485.514935,103.641929 C485.514935,102.873284 486.137755,102.250464 486.906401,102.250464 L490.595176,102.250464 C491.363822,102.250464 491.986642,102.873284 491.986642,103.641929 L491.986642,111.350928 C491.986642,112.119573 491.363822,112.742393 490.595176,112.742393 L486.906401,112.742393 C486.137755,112.742393 485.514935,112.119573 485.514935,111.350928 L485.514935,111.350928 Z" id="Fill-45" fill="#E0232F"></path>
          <path d="M220.410751,131.604629 L227.703701,131.604629 C230.929397,131.604629 233.544518,128.989508 233.544518,125.763813 L233.544518,109.482551 C233.544518,106.256855 230.929397,103.641735 227.703701,103.641735 L220.410751,103.641735 C217.185056,103.641735 214.569935,106.256855 214.569935,109.482551 L214.569935,125.763813 C214.569935,128.989508 217.185056,131.604629 220.410751,131.604629" id="Fill-46" fill="#FFFFFF"></path>
          <path d="M220.410891,105.033367 C217.957458,105.033367 215.96154,107.029286 215.96154,109.48244 L215.96154,125.763701 C215.96154,128.217412 217.957458,130.213052 220.410891,130.213052 L227.703562,130.213052 C230.156994,130.213052 232.152913,128.217412 232.152913,125.763701 L232.152913,109.48244 C232.152913,107.029286 230.156994,105.033367 227.703562,105.033367 L220.410891,105.033367 Z M213.178609,125.763701 L213.178609,109.48244 C213.178609,105.494777 216.42295,102.250436 220.410891,102.250436 L227.703562,102.250436 C231.691503,102.250436 234.935844,105.494777 234.935844,109.48244 L234.935844,125.763701 C234.935844,129.751642 231.691503,132.995983 227.703562,132.995983 L220.410891,132.995983 C216.42295,132.995983 213.178609,129.751642 213.178609,125.763701 L213.178609,125.763701 Z" id="Fill-47" fill="#E0232F"></path>
          <path d="M220.894898,103.641929 L227.219666,103.641929 L227.219666,97.3171614 L220.894898,97.3171614 L220.894898,103.641929 Z" id="Fill-48" fill="#FFFFFF"></path>
          <path d="M225.8282,98.7083488 L222.286085,98.7083488 L222.286085,102.250464 L225.8282,102.250464 L225.8282,98.7083488 Z M219.503154,103.641929 L219.503154,97.3168831 C219.503154,96.5485158 220.125974,95.9254174 220.89462,95.9254174 L227.219666,95.9254174 C227.988033,95.9254174 228.611132,96.5485158 228.611132,97.3168831 L228.611132,103.641929 C228.611132,104.410575 227.988033,105.033395 227.219666,105.033395 L220.89462,105.033395 C220.125974,105.033395 219.503154,104.410575 219.503154,103.641929 L219.503154,103.641929 Z" id="Fill-49" fill="#E0232F"></path>
          <path id="Fill-50" fill="#FFFFFF" d="M195.17641,132.699378 L195.17641,124.696224"></path>
          <path d="M195.176438,134.090816 C195.945083,134.090816 196.567904,133.467996 196.567904,132.699351 L196.567904,124.696197 C196.567904,123.927551 195.945083,123.304731 195.176438,123.304731 C194.407792,123.304731 193.784972,123.927551 193.784972,124.696197 L193.784972,132.699351 C193.784972,133.467996 194.407792,134.090816 195.176438,134.090816" id="Fill-51" fill="#E0232F"></path>
          <path d="M377.712913,132.233098 C377.712913,141.201095 384.983043,148.471224 393.951039,148.471224 C402.919035,148.471224 410.189165,141.201095 410.189165,132.233098 C410.189165,123.265102 402.919035,115.994972 393.951039,115.994972 C384.983043,115.994972 377.712913,123.265102 377.712913,132.233098" id="Fill-52" fill="#FFFFFF"></path>
          <path d="M379.104267,132.232987 C379.104267,140.419536 385.764657,147.079926 393.951206,147.079926 C402.137755,147.079926 408.797588,140.419536 408.797588,132.232987 C408.797588,124.046438 402.137755,117.386327 393.951206,117.386327 C385.764657,117.386327 379.104267,124.046438 379.104267,132.232987 M376.321336,132.232987 C376.321336,122.511929 384.230148,114.603395 393.951206,114.603395 C403.671985,114.603395 411.580519,122.511929 411.580519,132.232987 C411.580519,141.954045 403.671985,149.862857 393.951206,149.862857 C384.230148,149.862857 376.321336,141.954045 376.321336,132.232987" id="Fill-53" fill="#E0232F"></path>
          <path d="M195.176438,134.090816 L276.152783,134.090816 L276.152783,131.307885 L195.176438,131.307885 L195.176438,134.090816 Z" id="Fill-54" fill="#E0232F"></path>
          <path d="M197.959814,126.087746 C197.959814,127.625037 196.713618,128.871234 195.176327,128.871234 C193.639035,128.871234 192.393117,127.625037 192.393117,126.087746 C192.393117,124.550455 193.639035,123.304258 195.176327,123.304258 C196.713618,123.304258 197.959814,124.550455 197.959814,126.087746" id="Fill-55" fill="#E0232F"></path>
        </g>
      </g>
    </g>
  </g>
</svg>
