<?xml version="1.0" encoding="UTF-8"?>
<svg xmlns="http://www.w3.org/2000/svg" xmlns:xlink="http://www.w3.org/1999/xlink" width="94px" height="101px" viewBox="0 0 94 101" version="1.1" class="w-full">
  <title>Page 1</title>
  <desc>Created with Sketch.</desc>
  <defs>
    <path id="path-1" d="M0,0.083 L93.941,0.083 L93.941,101 L0,101 L0,0.083 Z"></path>
    <path id="path-3" d="M0,0.083 L93.941,0.083 L93.941,101 L0,101 L0,0.083 Z"></path>
  </defs>
  <g id="Helping-You-Plan" stroke="none" stroke-width="1" fill="none" fill-rule="evenodd">
    <g id="Desktop----Getting-Around" transform="translate(-546.000000, -2010.000000)">
      <g id="Page-1" transform="translate(546.000000, 2010.000000)">
        <g id="Group-3">
          <g id="Clip-2"></g>
          <path d="M45.6465,100.9163 C46.0635,100.9673 46.4985,101.0003 46.9605,101.0003 C47.4235,101.0003 47.8585,100.9673 48.2755,100.9163 L46.9705,100.9163 L45.6465,100.9163 Z" id="Fill-1" fill="#E0232F"></path>
        </g>
        <g id="Group-6">
          <g id="Clip-5"></g>
          <path d="M62.1211,89.5811 C57.6631,89.5811 55.4121,92.0811 53.4271,94.2871 C51.9511,95.9261 50.6271,97.3641 48.4711,97.8291 L48.4711,56.5831 L49.2451,56.5831 C49.8431,56.5831 50.4341,56.6711 51.0051,56.8441 L73.5011,63.6601 C73.4491,64.1191 73.3521,64.5711 73.1631,64.9981 L62.2851,89.5871 C62.2291,89.5861 62.1781,89.5811 62.1211,89.5811 L62.1211,89.5811 Z M40.4991,94.2871 C38.5141,92.0811 36.2641,89.5811 31.8071,89.5811 C31.7551,89.5811 31.7071,89.5861 31.6561,89.5861 L20.7781,64.9981 C20.5741,64.5371 20.4731,64.0481 20.4291,63.5501 L42.5621,56.8441 C43.1321,56.6711 43.7241,56.5831 44.3211,56.5831 L45.4711,56.5831 L45.4711,97.8331 C43.3051,97.3731 41.9781,95.9301 40.4991,94.2871 L40.4991,94.2871 Z M20.3881,56.8731 C20.3881,54.8431 21.6941,53.0851 23.6381,52.5001 L43.1851,46.6091 C43.6131,46.4801 44.0561,46.4151 44.5031,46.4151 L46.9711,46.4151 L49.4381,46.4151 C49.8851,46.4151 50.3281,46.4801 50.7561,46.6091 L70.3041,52.5001 C72.2471,53.0851 73.5541,54.8431 73.5541,56.8731 L73.5541,60.5411 L51.8751,53.9731 C51.3821,53.8231 50.8761,53.7291 50.3661,53.6651 L50.3661,53.5831 L49.2451,53.5831 L44.3211,53.5831 L43.2001,53.5831 L43.2001,53.6651 C42.6901,53.7291 42.1841,53.8231 41.6921,53.9731 L20.3881,60.4281 L20.3881,56.8731 Z M30.3881,39.8331 L45.4711,39.8331 L45.4711,43.4151 L44.5031,43.4151 C43.7641,43.4151 43.0281,43.5231 42.3201,43.7371 L30.3881,47.3321 L30.3881,39.8331 Z M45.4711,19.3111 L45.4711,30.7901 L42.1701,30.7901 L45.4711,19.3111 Z M48.4711,39.8331 L63.5541,39.8331 L63.5541,47.3321 L51.6211,43.7371 C50.9131,43.5231 50.1781,43.4151 49.4381,43.4151 L48.4711,43.4151 L48.4711,39.8331 Z M48.4711,19.3111 L51.7711,30.7901 L48.4711,30.7901 L48.4711,19.3111 Z M92.4411,89.5811 C87.9821,89.5811 85.7301,92.0811 83.7441,94.2871 C81.9491,96.2791 80.3991,98.0001 77.2761,98.0001 C74.1551,98.0001 72.6061,96.2791 70.8131,94.2871 C69.3751,92.6891 67.7931,90.9421 65.3401,90.0971 L75.9071,66.2121 C76.3331,65.2481 76.5541,64.2051 76.5541,63.1501 L76.5541,56.8731 C76.5541,53.5341 74.3661,50.5901 71.1691,49.6271 L66.5541,48.2361 L66.5541,38.3331 C66.5541,37.5051 65.8821,36.8331 65.0541,36.8331 L62.9011,36.8331 C62.6841,35.1431 61.3641,33.8331 59.7571,33.8331 L55.2631,33.8331 L55.2631,32.2901 C55.2631,32.2721 55.2581,32.2541 55.2571,32.2361 C55.2551,32.1851 55.2491,32.1351 55.2421,32.0831 C55.2341,32.0301 55.2261,31.9781 55.2131,31.9271 C55.2091,31.9101 55.2091,31.8931 55.2041,31.8761 L48.9621,10.1651 L51.3881,10.1651 C52.2161,10.1651 52.8881,9.4941 52.8881,8.6651 C52.8881,7.8361 52.2161,7.1651 51.3881,7.1651 L48.4711,7.1651 L48.4711,1.5831 C48.4711,0.7541 47.7991,0.0831 46.9711,0.0831 C46.1421,0.0831 45.4711,0.7541 45.4711,1.5831 L45.4711,7.1651 L42.5541,7.1651 C41.7251,7.1651 41.0541,7.8361 41.0541,8.6651 C41.0541,9.4941 41.7251,10.1651 42.5541,10.1651 L44.9791,10.1651 L38.7371,31.8761 C38.7321,31.8931 38.7321,31.9101 38.7281,31.9281 C38.7151,31.9781 38.7071,32.0301 38.7001,32.0831 C38.6921,32.1341 38.6861,32.1851 38.6841,32.2361 C38.6841,32.2551 38.6791,32.2721 38.6791,32.2901 L38.6791,33.8331 L34.1841,33.8331 C32.5761,33.8331 31.2561,35.1431 31.0391,36.8331 L28.8881,36.8331 C28.0591,36.8331 27.3881,37.5051 27.3881,38.3331 L27.3881,48.2361 L22.7721,49.6271 C19.5751,50.5901 17.3881,53.5341 17.3881,56.8731 L17.3881,63.1501 C17.3881,64.2051 17.6081,65.2481 18.0351,66.2121 L28.6001,90.0931 C26.1401,90.9361 24.5561,92.6871 23.1151,94.2871 C21.3231,96.2791 19.7741,98.0001 16.6551,98.0001 C13.5341,98.0001 11.9851,96.2791 10.1921,94.2871 C8.2071,92.0811 5.9561,89.5811 1.5001,89.5811 C0.6721,89.5811 0.0001,90.2531 0.0001,91.0811 C0.0001,91.9091 0.6721,92.5811 1.5001,92.5811 C4.6201,92.5811 6.1691,94.3021 7.9621,96.2941 C9.9471,98.5001 12.1981,101.0001 16.6551,101.0001 C21.1111,101.0001 23.3601,98.5001 25.3461,96.2941 C26.7111,94.7771 27.9391,93.4221 29.8241,92.8601 C30.4131,92.6841 31.0631,92.5811 31.8071,92.5811 C32.2451,92.5811 32.6461,92.6221 33.0271,92.6861 C35.3601,93.0771 36.7271,94.5821 38.2681,96.2941 C38.7521,96.8311 39.2511,97.3851 39.7941,97.9161 C41.2491,99.3421 43.0231,100.5971 45.6461,100.9161 L46.9711,100.9161 L48.2761,100.9161 C50.9001,100.5971 52.6741,99.3421 54.1301,97.9161 C54.6731,97.3851 55.1731,96.8311 55.6561,96.2941 C57.2011,94.5781 58.5711,93.0691 60.9151,92.6831 C61.2921,92.6211 61.6891,92.5811 62.1211,92.5811 C62.8701,92.5811 63.5231,92.6851 64.1161,92.8631 C65.9941,93.4271 67.2201,94.7801 68.5831,96.2941 C70.5681,98.5001 72.8191,101.0001 77.2761,101.0001 C81.7351,101.0001 83.9861,98.5001 85.9731,96.2951 C87.7671,94.3021 89.3171,92.5811 92.4411,92.5811 C93.2691,92.5811 93.9411,91.9091 93.9411,91.0811 C93.9411,90.2531 93.2691,89.5811 92.4411,89.5811 L92.4411,89.5811 Z" id="Fill-4" fill="#E0232F"></path>
        </g>
      </g>
    </g>
  </g>
</svg>
