<?xml version="1.0" encoding="UTF-8"?>
<svg xmlns="http://www.w3.org/2000/svg" xmlns:xlink="http://www.w3.org/1999/xlink" width="104px" height="100px" viewBox="0 0 104 100" version="1.1" class="w-full">
  <title>Page 1</title>
  <desc>Created with Sketch.</desc>
  <defs>
    <path id="path-1" d="M0,0.0903508772 L103.00614,0.0903508772 L103.00614,100 L0,100 L0,0.0903508772 Z"></path>
  </defs>
  <g id="Helping-You-Plan" stroke="none" stroke-width="1" fill="none" fill-rule="evenodd">
    <g id="Desktop----Getting-Around" transform="translate(-1256.000000, -2012.000000)">
      <g id="Bus-Travel" transform="translate(720.000000, 1970.000000)">
        <g id="Copy" transform="translate(42.000000, 42.000000)">
          <g id="Page-1" transform="translate(494.000000, 0.000000)">
            <g id="Clip-2"></g>
            <path d="M24.1508772,97.3684211 L34.0078947,97.3684211 L34.0078947,89.9122807 L24.1508772,89.9122807 L24.1508772,97.3684211 Z M35.3245614,100 L22.8350877,100 C22.1087719,100 21.5192982,99.4105263 21.5192982,98.6842105 L21.5192982,88.5964912 C21.5192982,87.8701754 22.1087719,87.2807018 22.8350877,87.2807018 L35.3245614,87.2807018 C36.0508772,87.2807018 36.6403509,87.8701754 36.6403509,88.5964912 L36.6403509,98.6842105 C36.6403509,99.4105263 36.0508772,100 35.3245614,100 L35.3245614,100 Z" id="Fill-1" fill="#E0232F"></path>
            <path d="M68.9973684,97.3684211 L78.854386,97.3684211 L78.854386,89.9122807 L68.9973684,89.9122807 L68.9973684,97.3684211 Z M80.1710526,100 L67.6815789,100 C66.9552632,100 66.3657895,99.4105263 66.3657895,98.6842105 L66.3657895,88.5964912 C66.3657895,87.8701754 66.9552632,87.2807018 67.6815789,87.2807018 L80.1710526,87.2807018 C80.8973684,87.2807018 81.4868421,87.8701754 81.4868421,88.5964912 L81.4868421,98.6842105 C81.4868421,99.4105263 80.8973684,100 80.1710526,100 L80.1710526,100 Z" id="Fill-3" fill="#E0232F"></path>
            <path d="M51.5028947,15.5654386 L25.7695614,15.5654386 C23.3397368,15.5654386 21.3704386,17.294386 21.3704386,19.4259649 L21.3704386,45.2119298 C21.3704386,47.7321053 22.6669298,50.1373684 24.9502632,51.6645614 C28.8625439,54.2821053 36.6642982,57.4514035 51.5028947,57.4514035 C66.3414912,57.4514035 74.1432456,54.2821053 78.0555263,51.6645614 C80.3388596,50.1373684 81.6353509,47.7321053 81.6353509,45.2119298 L81.6353509,19.4259649 C81.6353509,17.294386 79.6660526,15.5654386 77.2362281,15.5654386 L51.5028947,15.5654386 Z" id="Fill-4" fill="#FFFFFF"></path>
            <path d="M25.7699123,16.7908772 C24.1146491,16.7908772 22.7672807,17.9733333 22.7672807,19.4259649 L22.7672807,45.2110526 C22.7672807,47.3733333 23.8997368,49.4207018 25.7962281,50.69 C29.5716667,53.2145614 37.0944737,56.2250877 51.5023684,56.2250877 C65.9102632,56.2250877 73.4348246,53.2145614 77.2085088,50.69 C79.1058772,49.4207018 80.2383333,47.3733333 80.2383333,45.2110526 L80.2383333,19.4259649 C80.2383333,17.9733333 78.8909649,16.7908772 77.2357018,16.7908772 L25.7699123,16.7908772 Z M51.5023684,58.6768421 C36.3155263,58.6768421 28.2199123,55.3935088 24.1032456,52.6391228 C21.5172807,50.9101754 19.9742982,48.1329825 19.9742982,45.2110526 L19.9742982,19.4259649 C19.9742982,16.6215789 22.5742982,14.3391228 25.7699123,14.3391228 L77.2357018,14.3391228 C80.4313158,14.3391228 83.0313158,16.6215789 83.0313158,19.4259649 L83.0313158,45.2110526 C83.0313158,48.1329825 81.4883333,50.9101754 78.9023684,52.6391228 C74.7865789,55.3935088 66.6900877,58.6768421 51.5023684,58.6768421 L51.5023684,58.6768421 Z" id="Fill-5" fill="#E0232F"></path>
            <path d="M13.1330702,51.5350877 L4.69008772,51.5350877 C3.96377193,51.5350877 3.37429825,50.945614 3.37429825,50.2192982 C3.37429825,49.4929825 3.96377193,48.9035088 4.69008772,48.9035088 L13.1330702,48.9035088 C13.859386,48.9035088 14.4488596,49.4929825 14.4488596,50.2192982 C14.4488596,50.945614 13.859386,51.5350877 13.1330702,51.5350877" id="Fill-6" fill="#E0232F"></path>
            <path d="M4.69008772,51.5350877 C3.96377193,51.5350877 3.37429825,50.945614 3.37429825,50.2192982 L3.37429825,39.1447368 C3.37429825,38.4184211 3.96377193,37.8289474 4.69008772,37.8289474 C5.41640351,37.8289474 6.00587719,38.4184211 6.00587719,39.1447368 L6.00587719,50.2192982 C6.00587719,50.945614 5.41640351,51.5350877 4.69008772,51.5350877" id="Fill-7" fill="#E0232F"></path>
            <path d="M8.19824561,20.2482456 L1.18070175,20.2482456 L1.18070175,39.6929825 L8.19824561,39.6929825 L8.19824561,20.2482456 Z" id="Fill-8" fill="#E0232F"></path>
            <path d="M2.3622807,38.5114035 L7.01754386,38.5114035 L7.01754386,21.4289474 L2.3622807,21.4289474 L2.3622807,38.5114035 Z M8.19912281,40.8745614 L1.18157895,40.8745614 C0.528947368,40.8745614 0,40.345614 0,39.6929825 L0,20.2482456 C0,19.595614 0.528947368,19.0666667 1.18157895,19.0666667 L8.19912281,19.0666667 C8.85175439,19.0666667 9.37982456,19.595614 9.37982456,20.2482456 L9.37982456,39.6929825 C9.37982456,40.345614 8.85175439,40.8745614 8.19912281,40.8745614 L8.19912281,40.8745614 Z" id="Fill-9" fill="#E0232F"></path>
            <path d="M98.3158772,51.5350877 L89.8728947,51.5350877 C89.1465789,51.5350877 88.5571053,50.945614 88.5571053,50.2192982 C88.5571053,49.4929825 89.1465789,48.9035088 89.8728947,48.9035088 L98.3158772,48.9035088 C99.042193,48.9035088 99.6316667,49.4929825 99.6316667,50.2192982 C99.6316667,50.945614 99.042193,51.5350877 98.3158772,51.5350877" id="Fill-10" fill="#E0232F"></path>
            <path d="M98.3158772,51.5350877 C97.5895614,51.5350877 97.0000877,50.945614 97.0000877,50.2192982 L97.0000877,39.1447368 C97.0000877,38.4184211 97.5895614,37.8289474 98.3158772,37.8289474 C99.042193,37.8289474 99.6316667,38.4184211 99.6316667,39.1447368 L99.6316667,50.2192982 C99.6316667,50.945614 99.042193,51.5350877 98.3158772,51.5350877" id="Fill-11" fill="#E0232F"></path>
            <path d="M94.8070175,20.2482456 L101.824561,20.2482456 L101.824561,39.6929825 L94.8070175,39.6929825 L94.8070175,20.2482456 Z" id="Fill-12" fill="#E0232F"></path>
            <path d="M95.9885965,38.5114035 L100.64386,38.5114035 L100.64386,21.4289474 L95.9885965,21.4289474 L95.9885965,38.5114035 Z M101.824561,40.8745614 L94.8070175,40.8745614 C94.154386,40.8745614 93.6254386,40.345614 93.6254386,39.6929825 L93.6254386,20.2482456 C93.6254386,19.595614 94.154386,19.0666667 94.8070175,19.0666667 L101.824561,19.0666667 C102.477193,19.0666667 103.00614,19.595614 103.00614,20.2482456 L103.00614,39.6929825 C103.00614,40.345614 102.477193,40.8745614 101.824561,40.8745614 L101.824561,40.8745614 Z" id="Fill-13" fill="#E0232F"></path>
            <path d="M35.5666667,79.495614 L22.5929825,79.495614 L22.5929825,73.1359649 L35.5666667,73.1359649 L35.5666667,79.495614 Z" id="Fill-14" fill="#FFFFFF"></path>
            <path d="M23.8184211,78.2701754 L34.3403509,78.2701754 L34.3403509,74.3622807 L23.8184211,74.3622807 L23.8184211,78.2701754 Z M35.5666667,80.7210526 L22.5929825,80.7210526 C21.9157895,80.7210526 21.3666667,80.1719298 21.3666667,79.495614 L21.3666667,73.1359649 C21.3666667,72.4596491 21.9157895,71.9105263 22.5929825,71.9105263 L35.5666667,71.9105263 C36.2429825,71.9105263 36.7921053,72.4596491 36.7921053,73.1359649 L36.7921053,79.495614 C36.7921053,80.1719298 36.2429825,80.7210526 35.5666667,80.7210526 L35.5666667,80.7210526 Z" id="Fill-15" fill="#E0232F"></path>
            <path d="M80.4131579,79.495614 L67.4394737,79.495614 L67.4394737,73.1359649 L80.4131579,73.1359649 L80.4131579,79.495614 Z" id="Fill-16" fill="#FFFFFF"></path>
            <path d="M68.6649123,78.2701754 L79.1868421,78.2701754 L79.1868421,74.3622807 L68.6649123,74.3622807 L68.6649123,78.2701754 Z M80.4131579,80.7210526 L67.4394737,80.7210526 C66.7622807,80.7210526 66.2131579,80.1719298 66.2131579,79.495614 L66.2131579,73.1359649 C66.2131579,72.4596491 66.7622807,71.9105263 67.4394737,71.9105263 L80.4131579,71.9105263 C81.0894737,71.9105263 81.6385965,72.4596491 81.6385965,73.1359649 L81.6385965,79.495614 C81.6385965,80.1719298 81.0894737,80.7210526 80.4131579,80.7210526 L80.4131579,80.7210526 Z" id="Fill-17" fill="#E0232F"></path>
            <path d="M67.439386,10.6557018 L35.5665789,10.6557018 C34.8902632,10.6557018 34.3411404,10.1074561 34.3411404,9.43026316 C34.3411404,8.75307018 34.8902632,8.20394737 35.5665789,8.20394737 L67.439386,8.20394737 C68.1157018,8.20394737 68.6648246,8.75307018 68.6648246,9.43026316 C68.6648246,10.1074561 68.1157018,10.6557018 67.439386,10.6557018" id="Fill-18" fill="#E0232F"></path>
            <path d="M58.6674561,74.8088596 L44.3385088,74.8088596 C43.662193,74.8088596 43.1130702,74.260614 43.1130702,73.5834211 C43.1130702,72.9062281 43.662193,72.3571053 44.3385088,72.3571053 L58.6674561,72.3571053 C59.3437719,72.3571053 59.8928947,72.9062281 59.8928947,73.5834211 C59.8928947,74.260614 59.3437719,74.8088596 58.6674561,74.8088596" id="Fill-19" fill="#E0232F"></path>
            <path d="M58.6674561,70.1220175 L44.3385088,70.1220175 C43.662193,70.1220175 43.1130702,69.5737719 43.1130702,68.8965789 C43.1130702,68.219386 43.662193,67.6702632 44.3385088,67.6702632 L58.6674561,67.6702632 C59.3437719,67.6702632 59.8928947,68.219386 59.8928947,68.8965789 C59.8928947,69.5737719 59.3437719,70.1220175 58.6674561,70.1220175" id="Fill-20" fill="#E0232F"></path>
            <path d="M58.6674561,79.495614 L44.3385088,79.495614 C43.662193,79.495614 43.1130702,78.9473684 43.1130702,78.2701754 C43.1130702,77.5929825 43.662193,77.0438596 44.3385088,77.0438596 L58.6674561,77.0438596 C59.3437719,77.0438596 59.8928947,77.5929825 59.8928947,78.2701754 C59.8928947,78.9473684 59.3437719,79.495614 58.6674561,79.495614" id="Fill-21" fill="#E0232F"></path>
            <path d="M88.3450877,79.6669298 C88.3450877,83.8651754 84.9292982,87.2809649 80.7310526,87.2809649 L22.2757895,87.2809649 C18.0775439,87.2809649 14.6608772,83.8651754 14.6608772,79.6669298 L14.6608772,11.5616667 C14.6608772,7.36342105 18.0775439,3.94763158 22.2757895,3.94763158 L80.7310526,3.94763158 C84.9292982,3.94763158 88.3450877,7.36342105 88.3450877,11.5616667 L88.3450877,79.6669298 Z M80.7310526,1.31605263 L61.8073684,1.31605263 C61.8073684,0.638859649 61.4775439,0.0897368421 61.0714035,0.0897368421 L41.9345614,0.0897368421 C41.5275439,0.0897368421 41.1985965,0.638859649 41.1985965,1.31605263 L22.2757895,1.31605263 C16.6257895,1.31605263 12.0292982,5.91166667 12.0292982,11.5616667 L12.0292982,79.6669298 C12.0292982,85.3160526 16.6257895,89.9125439 22.2757895,89.9125439 L80.7310526,89.9125439 C86.3810526,89.9125439 90.9766667,85.3160526 90.9766667,79.6669298 L90.9766667,11.5616667 C90.9766667,5.91166667 86.3810526,1.31605263 80.7310526,1.31605263 L80.7310526,1.31605263 Z" id="Fill-22" fill="#E0232F"></path>
          </g>
        </g>
      </g>
    </g>
  </g>
</svg>
