<svg xmlns="http://www.w3.org/2000/svg" xmlns:xlink="http://www.w3.org/1999/xlink" width="500px" height="222px" viewBox="0 0 500 222" version="1.1" class="w-full">

    <title>Page 1</title>
    <desc>Created with Sketch.</desc>
    <defs>
        <path id="path-1" d="M0,0.275412685 L499.93397,0.275412685 L499.93397,221.112076 L0,221.112076"></path>
    </defs>
    <g id="Helping-You-Plan" stroke="none" stroke-width="1" fill="none" fill-rule="evenodd">
        <g id="Desktop----Getting-Around" transform="translate(-810.000000, -819.000000)">
            <g id="Air-Travel" transform="translate(79.000000, 690.000000)">
                <g id="Copy">
                    <g id="Page-1" transform="translate(731.000000, 129.000000)">
                        <path d="M498.211685,160.429974 C498.211685,171.137185 480.181712,179.817029 457.940182,179.817029 C451.127845,179.817029 444.711685,179.001651 439.086577,177.563771 C433.867202,183.823545 422.680408,188.150652 409.720808,188.150652 C392.462337,188.150652 378.348089,180.476455 377.285969,170.784014 C368.285534,168.735361 361.565725,160.689748 361.565725,151.068983 C361.565725,139.899131 370.620895,130.844396 381.790747,130.844396 C384.695178,130.844396 387.454083,131.461251 389.950174,132.563336 C396.212989,129.023371 406.295526,126.725804 417.668679,126.725804 C428.707776,126.725804 438.530973,128.890009 444.8255,132.254474 C446.331147,128.062033 449.39457,125.189314 452.931494,125.189314 C455.864162,125.189314 458.47146,127.164987 460.13523,130.229279 C462.223849,129.132407 464.600043,128.508601 467.122632,128.508601 C475.436707,128.508601 482.176499,135.248393 482.176499,143.562467 C482.176499,144.021199 482.152606,144.474283 482.112207,144.923023 C491.888054,148.459948 498.211685,154.089401 498.211685,160.429974" id="Fill-1" fill="#FFFFFF"></path>
                        <g id="Group-5">
                            <g id="Clip-4"></g>
                            <path d="M444.013988,133.773545 C437.681668,130.389096 428.079149,128.447741 417.668636,128.447741 C407.062641,128.447741 397.017463,130.54722 390.798089,134.062858 C390.323719,134.330452 389.751607,134.358254 389.254648,134.139314 C386.892354,133.095873 384.38106,132.566768 381.790704,132.566768 C371.588271,132.566768 363.288097,140.866942 363.288097,151.069374 C363.288097,159.761381 369.201216,167.177541 377.667767,169.104561 C378.384101,169.267463 378.917984,169.866507 378.997915,170.596308 C379.449696,174.717507 382.733362,178.6202 388.245526,181.585447 C394.051347,184.708384 401.678193,186.428627 409.721199,186.428627 C421.707732,186.428627 432.714683,182.515943 437.763771,176.460773 C438.189053,175.950782 438.870634,175.731842 439.513119,175.895178 C445.143006,177.333927 451.514857,178.09457 457.940139,178.09457 C478.835882,178.09457 496.489227,170.005083 496.489227,160.42993 C496.489227,155.124109 490.895395,149.932537 481.526151,146.542876 C480.790704,146.276586 480.326759,145.548089 480.397133,144.768766 C480.435361,144.340009 480.45404,143.945135 480.45404,143.562424 C480.45404,136.211425 474.474023,130.231407 467.122589,130.231407 C464.942311,130.231407 462.860643,130.743571 460.936229,131.754431 C460.102172,132.191877 459.070895,131.879105 458.62172,131.051564 C457.192963,128.420808 455.119114,126.911685 452.931451,126.911685 C450.243354,126.911685 447.758992,129.181885 446.446655,132.836533 C446.277672,133.307428 445.911903,133.681885 445.444917,133.861729 C445.244657,133.938619 445.035274,133.976846 444.825891,133.976846 C444.545699,133.976846 444.266811,133.908645 444.013988,133.773545 M460.798523,128.024631 C462.798957,127.211425 464.957081,126.786577 467.122589,126.786577 C476.373241,126.786577 483.898871,134.312207 483.898871,143.562424 C483.898871,143.625847 483.898436,143.689705 483.897567,143.753562 C494.108688,147.730539 499.934057,153.765725 499.934057,160.42993 C499.934057,172.267029 481.488358,181.539401 457.940139,181.539401 C451.617376,181.539401 445.331972,180.830886 439.687315,179.485969 C433.699913,185.917333 422.358905,189.873458 409.721199,189.873458 C401.118679,189.873458 392.912337,188.007255 386.613467,184.618897 C380.571329,181.368679 376.765074,176.9851 375.763771,172.171025 C371.445786,170.936447 367.554387,168.366507 364.711208,164.849131 C361.572198,160.965552 359.843267,156.071981 359.843267,151.069374 C359.843267,138.967724 369.689053,129.121937 381.790704,129.121937 C384.574805,129.121937 387.281581,129.637576 389.851086,130.654952 C396.66603,127.056342 406.735969,125.002911 417.668636,125.002911 C427.759861,125.002911 437.202954,126.774414 443.956646,129.899522 C445.942745,125.887359 449.261599,123.466855 452.931451,123.466855 C455.970113,123.466855 458.77159,125.108471 460.798523,128.024631" id="Fill-3" fill="#E0232F"></path>
                        </g>
                        <path d="M385.66907,123.169027 C384.159513,123.169027 382.697307,123.349305 381.303736,123.684666 C380.874109,116.198132 374.270721,110.251564 366.186012,110.251564 C363.137793,110.251564 360.301998,111.100391 357.926238,112.554778 C355.232493,105.068679 347.415812,99.6525195 338.188619,99.6525195 C327.310686,99.6525195 318.394961,107.178149 317.520938,116.750695 C312.758123,118.428367 309.392789,122.518723 309.392789,127.302824 C309.392789,127.313684 309.393658,127.324978 309.393658,127.335838 C298.536577,129.702042 291.594787,133.315421 291.594787,137.364944 C291.594787,144.49179 313.086099,150.26894 339.597394,150.26894 C342.138228,150.26894 344.632146,150.215508 347.066551,150.113423 C348.986186,152.433579 356.793745,154.170765 366.139531,154.170765 C371.031364,154.170765 375.499218,153.693788 378.925804,152.907515 C380.994005,153.718983 383.273328,154.170765 385.66907,154.170765 C395.081321,154.170765 402.711642,147.230712 402.711642,138.669896 C402.711642,130.109079 395.081321,123.169027 385.66907,123.169027" id="Fill-6" fill="#FFFFFF"></path>
                        <path d="M378.925543,151.185274 C379.139705,151.185274 379.352997,151.225239 379.554561,151.304301 C381.490269,152.06364 383.547611,152.448523 385.669244,152.448523 C394.116681,152.448523 400.988966,146.267376 400.988966,138.67007 C400.988966,131.072763 394.116681,124.891616 385.669244,124.891616 C384.331277,124.891616 382.998089,125.048871 381.706169,125.35947 C381.209209,125.478497 380.68662,125.371633 380.276542,125.06755 C379.866898,124.763467 379.613206,124.293006 379.584101,123.783449 C379.203997,117.161381 373.319114,111.974153 366.186186,111.974153 C363.561077,111.974153 361.015899,112.683102 358.825195,114.024109 C358.383406,114.294309 357.84344,114.351651 357.354735,114.180061 C356.86603,114.008471 356.480712,113.625326 356.305213,113.137924 C353.773936,106.102302 346.49331,101.375109 338.188358,101.375109 C328.356038,101.375109 320.031103,108.197437 319.236142,116.907689 C319.174891,117.577976 318.727889,118.15139 318.092789,118.375109 C313.862554,119.865552 311.126238,123.358601 311.114944,127.279105 C311.115812,127.299522 311.116247,127.320808 311.116247,127.336012 C311.116247,128.146177 310.551955,128.846438 309.760469,129.019331 C297.623632,131.663988 293.317376,135.167897 293.317376,137.365117 C293.317376,142.034101 310.923805,148.546699 339.597567,148.546699 C342.069331,148.546699 344.558471,148.495004 346.994179,148.392919 C347.536316,148.357298 348.050217,148.600565 348.393831,149.015421 C349.538923,150.400304 355.971156,152.448523 366.13927,152.448523 C370.708775,152.448523 375.112772,152.014987 378.540226,151.229149 C378.667507,151.199609 378.796525,151.185274 378.925543,151.185274 M385.669244,155.893354 C383.296959,155.893354 380.988532,155.492398 378.798262,154.700043 C375.207906,155.470678 370.738749,155.893354 366.13927,155.893354 C355.153606,155.893354 348.859079,153.847741 346.410339,151.86338 C344.160122,151.948523 341.871677,151.991529 339.597567,151.991529 C326.628844,151.991529 314.415552,150.628367 305.207037,148.152693 C295.175326,145.456342 289.872546,141.725673 289.872546,137.365117 C289.872546,134.020634 293.01503,129.367724 307.747871,125.941138 C308.265248,121.424631 311.335621,117.503258 315.934666,115.522372 C316.63927,110.829496 319.121025,106.518028 323.001564,103.288228 C327.152302,99.8334057 332.545873,97.930278 338.188358,97.930278 C347.217029,97.930278 355.242659,102.765639 358.783058,110.146612 C361.078888,109.084492 363.603649,108.529322 366.186186,108.529322 C374.44596,108.529322 381.378193,114.153562 382.786968,121.650521 C383.739618,121.514987 384.703562,121.446785 385.669244,121.446785 C396.015899,121.446785 404.433797,129.172676 404.433797,138.67007 C404.433797,148.167029 396.015899,155.893354 385.669244,155.893354" id="Fill-8" fill="#E0232F"></path>
                        <path d="M1.45638575,35.8216334 C1.45638575,44.7017376 13.9294526,51.9002606 29.316073,51.9002606 C33.2026933,51.9002606 36.9025195,51.4406603 40.2630756,50.610947 C43.3052129,56.5462207 49.7348393,60.6396177 57.1761946,60.6396177 C66.8682016,60.6396177 74.8438749,53.695656 75.852563,44.7803649 C82.804344,40.969331 87.5185056,33.5844483 87.5185056,25.097046 C87.5185056,12.7073849 77.4746308,2.66350999 65.0849696,2.66350999 C58.0793223,2.66350999 51.8256299,5.87549957 47.7118158,10.9059079 C46.3825369,5.60486533 42.194874,1.73171156 37.231364,1.73171156 C31.1987837,1.73171156 26.3082537,7.45065161 26.3082537,14.5045178 C26.3082537,16.3885317 26.6596872,18.1756733 27.286099,19.7860122 C12.8473501,20.3859253 1.45638575,27.3355343 1.45638575,35.8216334" id="Fill-10" fill="#FFFFFF"></path>
                        <path d="M40.2632928,49.1547785 C40.7997828,49.1547785 41.3058645,49.4523458 41.5591225,49.9471329 C44.4348827,55.5574718 50.5647698,59.1830148 57.1759774,59.1830148 C66.0591225,59.1830148 73.4661599,52.9206342 74.4053432,44.6165508 C74.458775,44.1460904 74.7372285,43.7307993 75.1525195,43.5031712 C81.8818853,39.814205 86.0621633,32.7612076 86.0621633,25.0970026 C86.0621633,13.5301043 76.6516507,4.11959166 65.0847524,4.11959166 C58.766768,4.11959166 52.8453953,6.92932233 48.8393136,11.828106 C48.4904865,12.2542572 47.9322763,12.4475673 47.3940487,12.3276716 C46.8566898,12.2073414 46.4331451,11.7942224 46.298914,11.2603388 C45.1077758,6.5075152 41.3784101,3.18822763 37.2311468,3.18822763 C32.011338,3.18822763 27.764596,8.26468288 27.764596,14.5044744 C27.764596,16.1591225 28.0599913,17.7586012 28.643397,19.2581668 C28.8136838,19.6960469 28.762424,20.1895308 28.5048219,20.5831017 C28.2476542,20.9762381 27.8162902,21.2216768 27.3466985,21.241225 C13.6451347,21.8102954 2.91272806,28.2151607 2.91272806,35.8215899 C2.91272806,39.5739791 5.55217202,43.163901 10.3445265,45.9297567 C15.3884014,48.8411381 22.1260209,50.4440921 29.3162902,50.4440921 C32.9961338,50.4440921 36.5617289,50.024457 39.9140313,49.1973501 C40.0304518,49.168245 40.1477411,49.1547785 40.2632928,49.1547785 M57.1759774,62.0956994 C49.764596,62.0956994 43.1038662,58.3632928 39.5195917,52.2798871 C36.2619896,52.9949175 32.835404,53.3567767 29.3162902,53.3567767 C21.62298,53.3567767 14.3684188,51.6152476 8.88840139,48.4523458 C3.1568636,45.1447871 4.34404865e-05,40.6591225 4.34404865e-05,35.8215899 C4.34404865e-05,31.2073414 2.90925282,26.8693745 8.19161599,23.6074283 C12.7741529,20.777715 18.803258,18.969722 25.3336664,18.4458297 C25.0130756,17.1708514 24.851477,15.8515639 24.851477,14.5044744 C24.851477,6.6586881 30.4049088,0.275543006 37.2311468,0.275543006 C41.9435708,0.275543006 46.2168115,3.39370113 48.2893571,8.10829713 C52.7454822,3.6947437 58.7389661,1.20690704 65.0847524,1.20690704 C78.2576455,1.20690704 88.974848,11.9236751 88.974848,25.0970026 C88.974848,33.5765856 84.4817984,41.398914 77.2003041,45.6895308 C75.7498262,55.0943962 67.2771937,62.0956994 57.1759774,62.0956994" id="Fill-12" fill="#E0232F"></path>
                        <path d="M136.428714,58.900391 L136.0851,57.8326238 C134.973023,54.3782363 136.871807,50.6771069 140.326195,49.5650304 L180.566855,36.6128149 C184.020808,35.5007385 187.722372,37.3995222 188.834014,40.8539096 L189.178063,41.9216768 C190.289705,45.3756299 188.390921,49.0771937 184.936968,50.1888358 L144.695873,63.1414857 C141.24192,64.2531277 137.540356,62.354344 136.428714,58.900391" id="Fill-14" fill="#FFFFFF"></path>
                        <path d="M137.727411,58.4404431 C138.155734,59.7710252 139.076238,60.8552997 140.320374,61.4930061 C141.56364,62.1311468 142.981538,62.2466985 144.31212,61.8183753 L184.476759,48.8900521 C185.807776,48.4617289 186.891616,47.541225 187.529322,46.2975239 C188.167897,45.0542572 188.283449,43.6363597 187.854692,42.3057776 L187.535404,41.3135969 C187.107081,39.9834492 186.186577,38.8991746 184.942441,38.2610339 C183.699175,37.6228931 182.281277,37.5073414 180.950695,37.9356646 L140.786056,50.8639878 C138.039314,51.7480017 136.524109,54.701086 137.408123,57.4486968 L137.727411,58.4404431 Z M135.28258,52.1993484 C136.256516,50.3014335 137.911599,48.8956994 139.942007,48.2419201 L180.107081,35.3140313 C182.137489,34.660252 184.301694,34.8366203 186.200043,35.8101216 C188.097958,36.7840573 189.503692,38.4387055 190.157472,40.4699826 L190.476759,41.4617289 C191.130539,43.4925717 190.95417,45.6563423 189.980235,47.5546916 C189.006299,49.4530408 187.351651,50.8583406 185.320808,51.5121199 L145.156169,64.4400087 C143.125326,65.093788 140.961555,64.917854 139.063206,63.9439183 C137.164857,62.9699826 135.759123,61.3153345 135.105343,59.2844917 L134.786056,58.292311 C134.391182,57.0646829 134.299088,55.7888358 134.503692,54.5516507 C134.637055,53.7427889 134.897698,52.9504344 135.28258,52.1993484 L135.28258,52.1993484 Z" id="Fill-16" fill="#E0232F"></path>
                        <path d="M167.140052,75.4473067 L166.796438,74.3795395 C165.684361,70.925152 167.583145,67.2240226 171.037533,66.1119461 L213.770374,52.3573849 C217.224327,51.2457428 220.925891,53.1445265 222.037533,56.5984796 L222.381581,57.6662467 C223.493223,61.1206342 221.59444,64.8217637 218.140487,65.9338401 L175.407211,79.6884014 C171.953258,80.8000434 168.251694,78.9012598 167.140052,75.4473067" id="Fill-18" fill="#FFFFFF"></path>
                        <path d="M168.438836,74.9874457 C169.32285,77.7341877 172.276803,79.2493918 175.023545,78.3653779 L217.680365,64.6347089 C219.010947,64.2063858 220.094787,63.2858818 220.732928,62.0421807 C221.371503,60.798914 221.48662,59.3810165 221.058297,58.0504344 L220.73901,57.0582537 C219.854996,54.3119461 216.901043,52.7963076 214.154301,53.6807559 L171.49748,67.4109904 C170.166898,67.8393136 169.082624,68.7598175 168.444917,70.0035187 C167.806342,71.2480886 167.691225,72.6651173 168.119548,73.9956994 L168.438836,74.9874457 Z M170.653432,64.7889227 L213.310252,51.0586881 C217.502693,49.7089922 222.011381,52.0221981 223.361077,56.214205 L223.67993,57.2063858 C224.33371,59.2372285 224.157776,61.4014335 223.18384,63.2993484 C222.209904,65.1976977 220.555256,66.6029974 218.523979,67.2567767 L175.867593,80.9870113 C171.674718,82.3362728 167.166464,80.0235013 165.816768,75.8314944 L165.49748,74.8393136 C165.09609,73.5917029 165.018766,72.3162902 165.219027,71.1038662 C165.691659,68.2433102 167.709036,65.7367941 170.653432,64.7889227 L170.653432,64.7889227 Z" id="Fill-20" fill="#E0232F"></path>
                        <path d="M125.599348,45.6903997 C124.268766,44.8533015 123.395613,43.4727628 123.201868,41.896742 C123.009427,40.3237619 123.532884,38.8454822 124.638445,37.8415725 L127.910817,34.8711121 C132.455995,30.7438315 138.975109,29.6030843 144.925152,31.8932667 L231.575456,65.2438315 L231.571112,65.2420938 L204.922546,95.5761512 L206.730104,96.6882276 L206.715334,96.7038662 L125.599348,45.6903997 Z" id="Fill-22" fill="#FFFFFF"></path>
                        <path d="M238.460122,65.720417 C238.577411,66.1752389 238.466203,66.6465682 238.165161,66.969331 C237.826325,67.3329279 237.303736,67.4471764 236.82285,67.2625543 L236.233797,67.035795 L231.575673,65.2434405 L144.924935,31.8933102 C138.975326,29.6031277 132.455778,30.7438749 127.911034,34.8711555 L124.638662,37.841616 C123.532667,38.8455256 123.009209,40.3238054 123.202085,41.8967854 C123.39583,43.4723719 124.268549,44.8533449 125.599131,45.6904431 L206.715552,96.7039096 L206.729887,96.6878367 L207.917984,97.4189401 C208.519635,97.789053 208.658645,98.6300608 208.199479,99.1231103 L207.950565,99.3898349 C207.547003,99.8229366 206.894526,99.8946134 206.368462,99.5635969 L124.357168,47.987576 C122.613901,46.8911381 121.373675,45.1943527 120.843701,43.2247611 C120.729018,42.7994787 120.647785,42.3607298 120.601738,41.9128584 C120.353258,39.4919201 121.288966,37.1769765 122.988358,35.6339705 L126.131712,32.7803649 C131.356733,28.035795 138.85152,26.7243267 145.691225,29.3568202 L237.587402,64.7269331 C238.013553,64.8902693 238.332407,65.2590791 238.460122,65.720417" id="Fill-24" fill="#E0232F"></path>
                        <path d="M231.571286,65.2421807 L231.57563,65.2434839 L234.857559,66.5067333 L206.729844,96.6878801 L204.922719,95.5762381 L231.571286,65.2421807 Z" id="Fill-26" fill="#FFFFFF"></path>
                        <path d="M107.644961,102.839748 L92.7466116,80.3028236 C90.3491312,76.6759774 86.0758905,74.7554735 81.7718071,75.3710252 L80.9125543,75.4935274 C75.370417,76.2858818 71.8313206,81.8236751 73.4403562,87.1855343 L80.8539096,111.891877 L107.644961,102.839748 Z" id="Fill-28" fill="#FFFFFF"></path>
                        <path d="M90.3348827,79.9728063 C88.2271503,77.7317116 85.112033,76.6031277 82.0116855,77.0466551 L81.1515639,77.1691573 C78.9986533,77.4767159 77.0920504,78.7047785 75.9208949,80.5375326 C74.7497394,82.3702867 74.4365334,84.6161599 75.0612076,86.6995656 L81.9712858,109.728236 L105.021242,101.939791 L91.3348827,81.2360556 C91.0355778,80.7834057 90.7002172,80.3611642 90.3348827,79.9728063 M79.6211555,113.051434 C79.4430495,112.862033 79.3092528,112.632667 79.2327976,112.378106 L71.8196785,87.6717637 C70.9109036,84.6435274 71.3661599,81.3789748 73.0685925,78.7147698 C74.7714596,76.0505647 77.5429626,74.2660295 80.6728497,73.8181581 L81.5329713,73.695656 C86.4586881,72.9914857 91.4122068,75.2186794 94.1585143,79.3694179 L109.056864,101.906342 C109.346177,102.344222 109.416116,102.892007 109.24583,103.388532 C109.075543,103.885491 108.684144,104.275152 108.186751,104.442832 L81.3956994,113.495395 C80.9608601,113.642224 80.4847524,113.606169 80.0772806,113.395482 C79.9048219,113.306429 79.7510426,113.190009 79.6211555,113.051434" id="Fill-30" fill="#E0232F"></path>
                        <path d="M300.891573,51.2986968 L298.698697,49.7226759 C286.709991,41.105821 271.212598,39.0380539 257.384188,44.2105126 L80.3607298,110.425543 C74.2725456,112.702693 70.9602085,119.279149 72.7543006,125.526325 L72.7543006,125.526325 L72.7543006,125.526325 C74.5483927,131.773501 80.84596,135.590182 87.2143354,134.290009 L272.396351,96.4837533 C286.862033,93.5302346 298.901129,83.5545613 304.490617,69.8894874 L305.512772,67.3899218 C307.879844,61.6027802 305.968462,54.9476977 300.891573,51.2986968" id="Fill-32" fill="#FFFFFF"></path>
                        <path d="M299.90391,52.6727628 L297.711034,51.096742 C286.157602,42.7926586 271.303562,40.8109036 257.97689,45.7956994 L80.9534318,112.010295 C75.7279757,113.965552 72.8409209,119.697089 74.3808862,125.059383 C75.9212858,130.422111 81.4095569,133.747915 86.8756733,132.631929 L272.058123,94.8252389 C285.99861,91.9794526 297.537272,82.4177672 302.923892,69.2483493 L303.946481,66.7492181 C306.025543,61.6666811 304.362641,55.8799739 299.90391,52.6727628 M74.3943527,131.728801 C72.9034752,130.144092 71.7614248,128.20013 71.1276281,125.993354 C69.1033015,118.9447 72.8982624,111.409948 79.7675065,108.840009 L256.791399,42.6254127 C271.178454,37.2440052 287.214075,39.3834492 299.686707,48.3486968 L301.879583,49.9247176 C307.614162,54.0467854 309.753171,61.4929192 307.079409,68.0307124 L306.05682,70.530278 C300.241442,84.747046 287.784883,95.0693745 272.734926,98.1419201 L87.5524761,135.948175 C82.616768,136.955995 77.6658558,135.207081 74.3943527,131.728801" id="Fill-34" fill="#E0232F"></path>
                        <path d="M185.067376,193.011512 L185.067376,193.011512 C186.730278,196.939835 191.263293,198.776499 195.191616,197.113597 L236.240269,179.736968 C240.169027,178.074066 242.005691,173.541486 240.342354,169.612728 L240.342354,169.612728 C238.679453,165.684405 234.146872,163.847741 230.218115,165.510643 L189.169461,182.887272 C185.241138,184.550174 183.404474,189.083189 185.067376,193.011512" id="Fill-36" fill="#FFFFFF"></path>
                        <path d="M186.221069,191.910339 L186.661121,192.94987 C187.880061,195.828671 191.212381,197.178367 194.090747,195.959861 L236.178497,178.143614 C237.572937,177.553258 238.653736,176.455517 239.222372,175.052389 C239.791008,173.648827 239.778844,172.107993 239.188488,170.713988 L238.748871,169.674457 C238.158514,168.280017 237.060773,167.198784 235.657646,166.631017 C234.254518,166.062381 232.713684,166.074109 231.319244,166.664466 L189.231494,184.481147 C187.837055,185.071069 186.755821,186.16881 186.187619,187.571937 C185.618983,188.9755 185.630712,190.515899 186.221069,191.910339 M186.328367,197.380799 C185.285795,196.510686 184.458254,195.399044 183.91351,194.112772 L183.473458,193.073241 C182.572937,190.945091 182.554692,188.593658 183.422198,186.451607 C184.290139,184.309991 185.940443,182.634492 188.068593,181.733536 L230.156342,163.917289 C232.284492,163.016334 234.635925,162.998089 236.777976,163.865595 C238.920026,164.733536 240.595526,166.383406 241.496047,168.511555 L241.936099,169.551086 C242.837055,171.679235 242.8553,174.030669 241.987359,176.172719 C241.119418,178.314335 239.469548,179.990269 237.341399,180.890791 L195.253649,198.707472 C193.1255,199.607993 190.773632,199.626238 188.632016,198.758732 C187.784926,198.415552 187.010817,197.94987 186.328367,197.380799" id="Fill-38" fill="#E0232F"></path>
                        <path d="M185.604083,152.898566 L185.604083,152.898566 C187.266985,156.82689 191.8,158.663553 195.728323,157.000652 L239.388619,138.518462 C243.316942,136.85556 245.153606,132.32298 243.490704,128.394222 L243.490704,128.394222 C241.827802,124.465899 237.294787,122.629235 233.366464,124.292137 L189.706169,142.774327 C185.777845,144.437228 183.941182,148.970243 185.604083,152.898566" id="Fill-40" fill="#FFFFFF"></path>
                        <path d="M186.757819,151.797263 L187.197871,152.836794 C187.787793,154.230799 188.884666,155.311599 190.289096,155.880669 C191.692224,156.449305 193.233058,156.437142 194.627063,155.846785 L239.32689,136.924978 C242.204822,135.706473 243.555387,132.373719 242.336881,129.495786 L241.896829,128.456255 C241.306907,127.061816 240.209166,125.980582 238.806038,125.412381 C237.402476,124.843745 235.861642,124.855908 234.467637,125.446264 L189.768245,144.368071 C186.889878,145.586577 185.539748,148.918897 186.757819,151.797263 M186.865117,157.260773 C185.842963,156.408036 185.004127,155.307255 184.450261,153.999696 L184.010209,152.960165 C182.150521,148.567463 184.211772,143.480582 188.604909,141.62046 L233.304735,122.698653 C235.432884,121.797698 237.784318,121.779453 239.926368,122.647394 C242.06755,123.514466 243.743484,125.165204 244.64444,127.293354 L245.084492,128.33245 C246.944179,132.725586 244.882928,137.812902 240.489791,139.672589 L195.789965,158.594396 C192.704822,159.900652 189.276499,159.272502 186.865117,157.260773" id="Fill-42" fill="#E0232F"></path>
                        <path d="M198.413032,213.242224 C198.550738,214.972024 199.479062,216.478975 200.964292,217.381668 C202.447785,218.282189 204.215378,218.410773 205.813119,217.73397 L210.542919,215.731364 C217.113293,212.950304 221.721025,206.822155 222.569418,199.738315 L234.923023,96.5710686 L234.922155,96.5762815 L190.215378,110.134926 L190.053779,107.796959 L190.030321,107.804778 L198.413032,213.242224 Z" id="Fill-44" fill="#FFFFFF"></path>
                        <path d="M238.09444,89.3468288 C237.698262,89.0236316 237.164379,88.9263249 236.679583,89.0879235 C236.133102,89.2703736 235.740834,89.7516942 235.672198,90.3238054 L235.587924,91.0249348 L234.92285,96.5709818 L222.569244,199.738228 C221.721286,206.822068 217.113119,212.950652 210.54318,215.731277 L205.81338,217.733884 C204.215204,218.410686 202.447611,218.282103 200.964118,217.381581 C199.479322,216.478888 198.550565,214.971937 198.412858,213.242137 L190.030148,107.804692 L190.053606,107.796872 L189.947176,106.259948 C189.89331,105.481494 189.119635,104.963249 188.379409,105.210426 L187.978454,105.344222 C187.327715,105.561425 186.909383,106.193918 186.963684,106.877672 L195.438923,213.478888 C195.619201,215.745178 196.671329,217.767333 198.375065,219.188705 C198.743006,219.49583 199.14179,219.775152 199.56881,220.022328 C201.877237,221.358992 204.706516,221.441964 207.162641,220.402433 L211.706082,218.478888 C219.259079,215.281668 224.556646,208.23649 225.531885,200.093136 L238.633102,90.6804518 C238.693918,90.1730669 238.491486,89.6834926 238.09444,89.3468288" id="Fill-46" fill="#E0232F"></path>
                        <path d="M58.7103388,129.559296 L58.7103388,129.559296 C59.4114683,132.000652 61.9588184,133.411164 64.3997394,132.710035 L86.9727194,126.227411 C89.4140747,125.526281 90.8245873,122.978931 90.1234579,120.537576 L90.1234579,120.537576 C89.4223284,118.096655 86.8754127,116.686142 84.4340573,117.387272 L61.8610773,123.869896 C59.419722,124.571025 58.0092094,127.117941 58.7103388,129.559296" id="Fill-48" fill="#FFFFFF"></path>
                        <path d="M87.8089053,119.631755 C87.6281929,119.439748 87.4166377,119.27424 87.1790182,119.14305 C86.5782363,118.810295 85.8840573,118.731234 85.2241964,118.921069 L62.0052563,125.589183 C61.3453953,125.778584 60.798914,126.213858 60.4661599,126.814205 C60.1338401,127.414987 60.0547785,128.1096 60.244179,128.769461 L60.244179,128.769896 L60.4296699,129.415421 C60.6195048,130.074848 61.0539096,130.621329 61.6546916,130.954518 C62.2559079,131.286838 62.9500869,131.365465 63.6099479,131.176064 L86.8288879,124.50795 C87.4887489,124.318549 88.0352302,123.883275 88.3679844,123.282493 C88.7003041,122.681712 88.7793658,121.987967 88.5899652,121.328106 L88.4044744,120.681712 C88.2897915,120.282928 88.0851868,119.925847 87.8089053,119.631755 M58.5560817,132.777715 C57.9283666,132.110469 57.4461772,131.28901 57.1764118,130.349392 L56.9909209,129.703432 C56.552172,128.174761 56.7346221,126.566594 57.5052563,125.174761 C58.2758905,123.782928 59.5421807,122.775109 61.0712858,122.335925 L84.2897915,115.667811 C85.8184622,115.228627 87.4270634,115.411077 88.8188966,116.181712 C90.209861,116.95278 91.2185491,118.21907 91.657298,119.747741 L91.8427889,120.394136 C92.2819722,121.921937 92.0995222,123.530539 91.3288879,124.921937 C90.5582537,126.313771 89.2919635,127.322024 87.7628584,127.761208 L64.5443527,134.429322 C62.3271503,135.065725 60.0369679,134.352433 58.5560817,132.777715" id="Fill-50" fill="#E0232F"></path>
                        <path d="M286.704909,56.9877498 L271.389096,63.0046916 L267.351738,52.7279757 L268.139314,52.4186794 C276.163206,49.2662033 284.475109,51.3118158 286.704909,56.9877498" id="Fill-52" fill="#FFFFFF"></path>
                        <path d="M269.043223,53.4690269 L272.12576,61.3152476 L284.895091,56.2987402 C283.776064,54.5572111 281.829496,53.2844049 279.283449,52.657993 C276.163119,51.8899652 272.543658,52.1797133 269.043223,53.4690269 M271.389444,64.3082971 C270.869461,64.3082971 270.377715,63.9946568 270.176151,63.4811903 L266.138792,53.2044744 C266.012381,52.8825804 266.018897,52.5237619 266.157037,52.2070808 C266.295613,51.8899652 266.554083,51.6410513 266.875543,51.5146394 L267.663119,51.2053432 C271.792137,49.5837098 276.14053,49.2001303 279.906386,50.1271503 C283.835578,51.0941355 286.680495,53.3612945 287.91768,56.5115986 C288.181364,57.1814509 287.851216,57.9377498 287.181364,58.2009991 L271.865552,64.2175065 C271.7096,64.279192 271.548002,64.3082971 271.389444,64.3082971" id="Fill-54" fill="#E0232F"></path>
                        <path d="M250.264987,79.2278454 L250.264987,79.2278454 C249.140313,79.5327976 247.980886,78.8681581 247.675934,77.7434839 L246.62424,73.8629453 C246.318853,72.7382711 246.983927,71.5788445 248.108601,71.2738923 C249.233275,70.9689401 250.392702,71.6335795 250.697654,72.7586881 L251.749348,76.6387924 C252.054301,77.763901 251.389661,78.9228931 250.264987,79.2278454" id="Fill-56" fill="#FFFFFF"></path>
                        <path d="M248.752215,72.2224587 C248.627107,72.212033 248.500261,72.2233275 248.375152,72.2572111 C247.794353,72.4149001 247.450304,73.0152476 247.607559,73.5964813 L248.659687,77.47702 C248.817376,78.0573849 249.418158,78.4027368 249.998523,78.244179 C250.579322,78.0869244 250.923805,77.4861425 250.766116,76.9053432 L249.713988,73.0252389 C249.637967,72.7437446 249.45682,72.5091659 249.203562,72.3640747 C249.062815,72.2832754 248.909036,72.2354909 248.752215,72.2224587 M249.455951,80.3097741 C248.180104,80.2029105 247.046308,79.3145526 246.692702,78.0096003 L245.640573,74.1294961 C245.189227,72.4644222 246.177063,70.7424414 247.841703,70.2906603 C248.649262,70.0717202 249.492007,70.1803215 250.217463,70.5960469 C250.942485,71.0122068 251.462467,71.6855343 251.680973,72.4922242 L252.733102,76.3723284 C253.184448,78.0374023 252.197046,79.7593831 250.531538,80.2111642 C250.171416,80.3089053 249.807819,80.3388792 249.455951,80.3097741" id="Fill-58" fill="#E0232F"></path>
                        <path d="M240.053084,81.9964379 L240.053084,81.9964379 C238.92841,82.3013901 237.768983,81.6367507 237.464031,80.5120765 L236.412337,76.6315378 C236.10695,75.5068636 236.772024,74.347437 237.896699,74.0424848 C239.021373,73.7375326 240.180799,74.402172 240.485752,75.5272806 L241.537446,79.4073849 C241.842832,80.5324935 241.177758,81.6914857 240.053084,81.9964379" id="Fill-60" fill="#FFFFFF"></path>
                        <path d="M238.538575,74.9913553 C238.415639,74.9809296 238.289227,74.9917897 238.163249,75.0261077 C237.58245,75.1833623 237.238401,75.7837098 237.395656,76.3649435 L238.447785,80.2454822 C238.605474,80.8258471 239.206255,81.1703301 239.78662,81.0130756 C240.36742,80.855821 240.711903,80.2550391 240.554214,79.6738054 L239.502085,75.7937011 C239.378714,75.3388792 238.983406,75.0287142 238.538575,74.9913553 M239.244049,83.0782363 C237.968636,82.9718071 236.834405,82.0834492 236.480799,80.778497 L235.428671,76.8979583 C234.977324,75.2333189 235.965161,73.511338 237.6298,73.0595569 C238.438228,72.8410513 239.281407,72.9500869 240.00556,73.3649435 C240.730582,73.780669 241.250565,74.4544309 241.46907,75.2611208 L242.521199,79.1407906 C242.972546,80.8062989 241.984709,82.5282798 240.319635,82.9800608 C239.959513,83.0773675 239.595917,83.1077758 239.244049,83.0782363" id="Fill-62" fill="#E0232F"></path>
                        <path d="M229.841225,84.7650304 L229.841225,84.7650304 C228.716551,85.0699826 227.557124,84.4053432 227.252172,83.280669 L226.200478,79.4001303 C225.895091,78.2754561 226.560165,77.1160295 227.684839,76.8110773 L227.684839,76.8110773 C228.809513,76.5061251 229.96894,77.1707646 230.273892,78.2958732 L231.325586,82.1759774 C231.630973,83.301086 230.965899,84.4600782 229.841225,84.7650304" id="Fill-64" fill="#FFFFFF"></path>
                        <path d="M228.328367,77.7596438 C228.203258,77.7492181 228.076412,77.7605126 227.951303,77.7943962 C227.370504,77.9520851 227.026455,78.5528671 227.18371,79.1336664 L228.235838,83.014205 C228.393527,83.5945699 228.994309,83.9399218 229.574674,83.781364 C230.155474,83.6241095 230.499957,83.0233275 230.342268,82.4425282 L229.290139,78.562424 C229.214118,78.2809296 229.032971,78.046351 228.779713,77.9012598 C228.638966,77.8204605 228.485621,77.7726759 228.328367,77.7596438 M229.032103,85.8469592 C227.756255,85.7400956 226.622459,84.8517376 226.268853,83.5467854 L225.216725,79.6666811 C224.765378,78.0016073 225.753215,76.2796264 227.417854,75.8278454 C228.224978,75.6089053 229.068593,75.7170721 229.793614,76.133232 C230.518636,76.5493918 231.038619,77.2227194 231.257124,78.0294092 L232.309253,81.9095135 C232.760599,83.5745873 231.773197,85.2965682 230.107689,85.7483493 C229.747567,85.8460904 229.38397,85.8760643 229.032103,85.8469592" id="Fill-66" fill="#E0232F"></path>
                        <path d="M219.629322,87.5336229 L219.629322,87.5336229 C218.504648,87.8385752 217.345222,87.1739357 217.040269,86.0492615 L215.988141,82.1687228 C215.683189,81.0440487 216.348262,79.8846221 217.472937,79.5796699 C218.597611,79.2747176 219.757037,79.9393571 220.06199,81.0644657 L221.113684,84.9445699 C221.418636,86.0696785 220.753997,87.2286707 219.629322,87.5336229" id="Fill-68" fill="#FFFFFF"></path>
                        <path d="M218.11477,80.528497 C217.991833,80.5180712 217.865421,80.5289314 217.739444,80.5632493 C217.158645,80.7205039 216.814596,81.3212858 216.971851,81.9020851 L218.023979,85.7826238 C218.181668,86.3629887 218.779844,86.7100782 219.362815,86.5502172 C219.943614,86.3929626 220.288097,85.7921807 220.130408,85.210947 L219.07828,81.3308427 C218.954909,80.8760209 218.5596,80.5658558 218.11477,80.528497 M218.814596,88.6166811 C218.364118,88.5788879 217.9245,88.4424848 217.520504,88.2113814 C216.795482,87.795656 216.2755,87.1223284 216.056994,86.3156386 L215.004865,82.4350999 C214.553519,80.7704605 215.541355,79.0484796 217.205995,78.5966985 C218.012685,78.3773241 218.856733,78.4859253 219.581755,78.9020851 C220.306777,79.3178106 220.826759,79.9915725 221.045265,80.7982624 L222.097394,84.6779322 C222.54874,86.3434405 221.560904,88.0654214 219.89583,88.5172024 C219.538315,88.6140747 219.17298,88.6466551 218.814596,88.6166811" id="Fill-70" fill="#E0232F"></path>
                        <path d="M209.417463,90.3022155 L209.417463,90.3022155 C208.292789,90.6071677 207.133362,89.9425282 206.82841,88.817854 L205.776716,84.9373154 C205.471329,83.8126412 206.136403,82.6532146 207.261077,82.3482624 C208.385752,82.0433102 209.545178,82.7079496 209.85013,83.8330582 L210.901825,87.7131625 C211.206777,88.8382711 210.542137,89.9972632 209.417463,90.3022155" id="Fill-72" fill="#FFFFFF"></path>
                        <path d="M207.904561,83.2968288 C207.779453,83.2864031 207.652606,83.2976977 207.527498,83.3315812 C206.946699,83.4892702 206.60265,84.0900521 206.759904,84.6708514 L207.812033,88.5513901 C207.969722,89.1313206 208.570504,89.4771069 209.150869,89.3185491 C209.731668,89.1612945 210.076151,88.5605126 209.918462,87.9797133 L208.866334,84.099609 C208.790313,83.8181147 208.609166,83.5835361 208.355908,83.4384448 C208.215161,83.3576455 208.061816,83.309861 207.904561,83.2968288 M208.60265,91.385013 C208.152172,91.3476542 207.712554,91.2112511 207.308558,90.9797133 C206.583536,90.5644222 206.063553,89.8906603 205.845048,89.0839705 L204.792919,85.2034318 C204.341573,83.5387924 205.329409,81.8168115 206.994049,81.3650304 C207.800738,81.1460904 208.644787,81.2546916 209.369809,81.670417 C210.094831,82.0865769 210.614813,82.7599044 210.833319,83.5665943 L211.885447,87.4466985 C212.336794,89.1117724 211.349392,90.8337533 209.683884,91.2855343 C209.326368,91.382841 208.961034,91.414987 208.60265,91.385013" id="Fill-74" fill="#E0232F"></path>
                        <path d="M199.20556,93.070808 L199.20556,93.070808 C198.080886,93.3757602 196.92146,92.7111208 196.616507,91.5864466 L195.564813,87.7059079 C195.259427,86.5812337 195.9245,85.4218071 197.049175,85.1168549 C198.173849,84.8119027 199.333275,85.4765421 199.638228,86.6016507 L200.689922,90.481755 C200.995308,91.6068636 200.330235,92.7658558 199.20556,93.070808" id="Fill-76" fill="#FFFFFF"></path>
                        <path d="M197.69305,86.0658558 C197.567941,86.0554301 197.44066,86.0662902 197.315986,86.1001738 C196.734752,86.2578627 196.390704,86.8586447 196.547958,87.4398784 L197.600087,91.3199826 C197.757776,91.8999131 198.358123,92.245265 198.938923,92.0871416 C199.519722,91.9303215 199.864205,91.3291051 199.706516,90.7483058 L198.654387,86.8682016 C198.578367,86.5867072 198.39722,86.3521286 198.144396,86.2070374 C198.003649,86.1262381 197.850304,86.0788879 197.69305,86.0658558 M198.390704,94.1536056 C197.940226,94.1162467 197.500608,93.9798436 197.096612,93.7483058 C196.37159,93.3330148 195.851607,92.6592528 195.633102,91.852563 L194.580973,87.9724587 C194.129626,86.3073849 195.117463,84.585404 196.782537,84.1336229 C197.588792,83.9146829 198.433275,84.0228497 199.157863,84.4390096 C199.883319,84.8551694 200.402867,85.528497 200.621373,86.3351868 L201.673501,90.2152911 C201.892441,91.0219809 201.783406,91.8655951 201.36768,92.5906169 C200.952389,93.316073 200.278627,93.8356212 199.471937,94.0541268 C199.114422,94.1509991 198.749088,94.1835795 198.390704,94.1536056" id="Fill-78" fill="#E0232F"></path>
                        <path d="M188.993701,95.8394005 L188.993701,95.8394005 C187.869027,96.1443527 186.7096,95.4797133 186.404648,94.3550391 L185.352954,90.4745004 C185.047567,89.3498262 185.712641,88.1903997 186.837315,87.8854474 C187.96199,87.5804952 189.121416,88.2451347 189.426368,89.3702433 L190.478063,93.2503475 C190.783449,94.3754561 190.118375,95.5344483 188.993701,95.8394005" id="Fill-80" fill="#FFFFFF"></path>
                        <path d="M187.481103,88.8344483 C187.355995,88.8240226 187.228714,88.8348827 187.10404,88.8687663 C186.522806,89.0264553 186.178758,89.6272372 186.336012,90.2084709 L187.388141,94.0885752 C187.464162,94.3696351 187.645743,94.6046481 187.898132,94.7497394 C188.15139,94.8943962 188.445482,94.931755 188.726977,94.8557341 C189.307776,94.698914 189.652259,94.0976977 189.49457,93.5168983 L188.442441,89.6367941 C188.366421,89.3552997 188.185274,89.1207211 187.93245,88.9756299 C187.791703,88.8948306 187.638358,88.8474805 187.481103,88.8344483 M188.178758,96.9221981 C187.728714,96.8848393 187.288662,96.7484361 186.8851,96.5168983 C186.160078,96.1016073 185.639661,95.4278454 185.421156,94.6211555 L184.369027,90.7410513 C183.91768,89.0759774 184.905517,87.3539965 186.570591,86.9022155 C187.377281,86.6832754 188.221329,86.7918766 188.945917,87.2076021 C189.671373,87.6237619 190.190921,88.2970895 190.409427,89.1037793 L191.461555,92.9838836 C191.680495,93.7905734 191.57146,94.6341877 191.155734,95.3592094 C190.740443,96.0846655 190.067116,96.6042137 189.259991,96.8227194 C188.902476,96.9195917 188.537576,96.952172 188.178758,96.9221981" id="Fill-82" fill="#E0232F"></path>
                        <path d="M178.781798,98.607993 L178.781798,98.607993 C177.657124,98.9129453 176.497698,98.2483058 176.192745,97.1236316 L175.141051,93.243093 C174.835665,92.1184188 175.500738,90.9589922 176.625413,90.65404 C177.750087,90.3490877 178.909513,91.0137272 179.214466,92.1388358 L180.26616,96.0189401 C180.571546,97.1440487 179.906473,98.3030408 178.781798,98.607993" id="Fill-84" fill="#FFFFFF"></path>
                        <path d="M177.269592,91.6030843 C177.144483,91.5926586 177.017202,91.6035187 176.892528,91.6374023 C176.31086,91.7955256 175.966811,92.3958732 176.124066,92.9771069 L177.176195,96.8567767 C177.252215,97.1382711 177.433797,97.3732841 177.686186,97.5179409 C177.939878,97.6630321 178.23397,97.7008254 178.51503,97.6243701 C178.796525,97.5483493 179.031538,97.3672024 179.176195,97.1143788 C179.321286,96.8611208 179.359079,96.5674631 179.283058,96.2859687 L178.23093,92.4054301 C178.154909,92.1239357 177.973762,91.8893571 177.720504,91.7442659 C177.580191,91.6634666 177.426412,91.6161164 177.269592,91.6030843 M177.966811,99.6908341 C177.516768,99.6534752 177.076716,99.5170721 176.673154,99.2855343 C175.948132,98.8702433 175.427715,98.1964813 175.209209,97.3897915 L174.157081,93.5096872 C173.705734,91.8446134 174.693571,90.1226325 176.358645,89.6708514 C177.1649,89.4523458 178.008949,89.5600782 178.73397,89.9762381 C179.459427,90.3923979 179.978975,91.0652911 180.19748,91.8719809 L181.249609,95.7525195 C181.468549,96.5592094 181.359948,97.4028236 180.944222,98.1278454 C180.528497,98.8528671 179.854735,99.3728497 179.048045,99.5913553 C178.69053,99.6882276 178.32563,99.720808 177.966811,99.6908341" id="Fill-86" fill="#E0232F"></path>
                        <path d="M168.569939,101.376586 L168.569939,101.376586 C167.445265,101.681538 166.285838,101.016898 165.980886,99.8922242 L164.929192,96.0116855 C164.62424,94.8870113 165.288879,93.7275847 166.413553,93.4226325 L166.413553,93.4226325 C167.538228,93.1176803 168.697654,93.7823197 169.002606,94.9074283 L170.054301,98.7875326 C170.359687,99.9126412 169.694613,101.071633 168.569939,101.376586" id="Fill-88" fill="#FFFFFF"></path>
                        <path d="M167.057689,94.3716768 C166.93258,94.3612511 166.8053,94.3721112 166.680626,94.4059948 C166.098957,94.5641182 165.754909,95.1644657 165.912163,95.7456994 L166.964292,99.6253692 C167.040313,99.9068636 167.221894,100.141877 167.474283,100.286533 C167.727976,100.431625 168.022068,100.468983 168.303128,100.392963 C168.584622,100.316942 168.819635,100.135795 168.964292,99.8829713 C169.109383,99.6297133 169.147176,99.3360556 169.071156,99.0545613 L168.019027,95.1740226 C167.943006,94.8925282 167.761859,94.6579496 167.508601,94.5128584 C167.368288,94.4320591 167.214509,94.3847089 167.057689,94.3716768 M167.754909,102.459427 C167.304865,102.422068 166.864813,102.285665 166.461251,102.054127 C165.736229,101.638836 165.215812,100.965074 164.997307,100.158384 L163.945178,96.2782798 C163.726672,95.4715899 163.835274,94.6279757 164.250999,93.902954 C164.667159,93.1779322 165.340487,92.658384 166.147176,92.439444 C166.952563,92.2209383 167.796612,92.3286707 168.522068,92.7448306 C169.247524,93.1609904 169.767072,93.8338836 169.985578,94.6405734 L171.037706,98.5211121 C171.256646,99.3278019 171.148045,100.171416 170.73232,100.896438 C170.316594,101.62146 169.642832,102.141442 168.836142,102.359948 C168.478627,102.45682 168.113727,102.489401 167.754909,102.459427" id="Fill-90" fill="#E0232F"></path>
                        <path d="M158.749957,104.472632 L158.749957,104.472632 C157.625282,104.777585 156.465856,104.112945 156.160904,102.988271 L155.109209,99.1077324 C154.804257,97.9830582 155.468897,96.8236316 156.593571,96.5186794 L156.593571,96.5186794 C157.718245,96.2137272 158.877672,96.8783666 159.182624,98.0034752 L160.234318,101.883579 C160.539705,103.008688 159.874631,104.16768 158.749957,104.472632" id="Fill-92" fill="#FFFFFF"></path>
                        <path d="M157.235578,97.467854 C157.112641,97.4574283 156.986229,97.4682884 156.860252,97.5026064 C156.279018,97.659861 155.93497,98.2602085 156.092224,98.8414422 L157.144353,102.721546 C157.220374,103.003041 157.401955,103.237619 157.654778,103.382711 C157.907602,103.528236 158.202129,103.565595 158.482754,103.48914 L158.483189,103.48914 C158.764683,103.412685 158.999696,103.231538 159.144353,102.978714 C159.289444,102.725891 159.327237,102.431798 159.251216,102.150304 L158.199088,98.2697654 C158.075717,97.8153779 157.680408,97.5052129 157.235578,97.467854 M157.93497,105.555604 C157.484492,105.517811 157.044874,105.381842 156.641312,105.150738 C155.915856,104.734579 155.395873,104.061251 155.177368,103.254561 L154.125239,99.374457 C153.906733,98.5677672 154.015334,97.7241529 154.43106,96.9991312 C154.84722,96.2736751 155.520547,95.7541268 156.327237,95.5356212 C157.991442,95.0847089 159.713858,96.0712424 160.165639,97.7363162 L161.217767,101.616855 C161.436707,102.423545 161.328106,103.267159 160.912381,103.992615 C160.496655,104.717637 159.822893,105.237185 159.016203,105.456125 C158.658688,105.552997 158.293788,105.585578 157.93497,105.555604" id="Fill-94" fill="#E0232F"></path>
                        <path d="M148.930017,107.568679 L148.930017,107.568679 C147.805343,107.873632 146.645917,107.208992 146.340964,106.084318 L145.28927,102.203779 C144.983884,101.079105 145.648957,99.9196785 146.773632,99.6147263 C147.898306,99.3097741 149.057732,99.9744136 149.362685,101.099522 L150.414379,104.979626 C150.719765,106.104735 150.054692,107.263727 148.930017,107.568679" id="Fill-96" fill="#FFFFFF"></path>
                        <path d="M147.415639,100.563771 C147.292702,100.553345 147.16629,100.564205 147.040313,100.598523 C146.758818,100.674544 146.52424,100.855691 146.379149,101.108949 C146.234057,101.361772 146.19583,101.655864 146.272285,101.937359 L147.324414,105.817897 C147.400434,106.098957 147.582016,106.333536 147.834839,106.478627 C148.087663,106.623719 148.382189,106.661512 148.663249,106.585491 C148.944744,106.509036 149.179757,106.327889 149.324414,106.074631 C149.469505,105.822242 149.507298,105.528149 149.431277,105.246655 L148.379149,101.365682 C148.255778,100.911295 147.860469,100.601129 147.415639,100.563771 M148.119809,108.651086 C146.844831,108.544222 145.711034,107.655864 145.357428,106.350912 L144.3053,102.470374 C144.086794,101.663684 144.195395,100.82007 144.611121,100.095048 C145.027281,99.3695917 145.700608,98.8500434 146.507298,98.6315378 C148.169331,98.1797567 149.893484,99.167159 150.345699,100.832233 L151.397828,104.713206 C151.616768,105.519461 151.508167,106.363076 151.092441,107.088532 C150.676281,107.813988 150.002954,108.333536 149.196264,108.552476 C148.836142,108.649783 148.472546,108.680191 148.119809,108.651086" id="Fill-98" fill="#E0232F"></path>
                        <path d="M139.110078,110.664726 L139.110078,110.664726 C137.985404,110.969679 136.825977,110.305039 136.521025,109.180365 L135.469331,105.299826 C135.163944,104.175152 135.829018,103.015725 136.953692,102.710773 L136.953692,102.710773 C138.078367,102.405821 139.237793,103.07046 139.542745,104.195569 L140.59444,108.075673 C140.899826,109.200782 140.234752,110.359774 139.110078,110.664726" id="Fill-100" fill="#FFFFFF"></path>
                        <path d="M137.595699,103.659687 C137.472763,103.649262 137.346351,103.660122 137.220374,103.69444 C136.639574,103.851694 136.295091,104.452476 136.452346,105.033275 L137.504474,108.913814 C137.662163,109.493745 138.26338,109.838662 138.84331,109.681407 C139.424544,109.523719 139.769027,108.923371 139.611338,108.342137 L138.559209,104.462033 C138.435838,104.007211 138.04053,103.697046 137.595699,103.659687 M138.300738,111.746568 C137.025326,111.640139 135.891964,110.751781 135.537924,109.447263 L134.485361,105.56629 C134.034014,103.901651 135.021851,102.179235 136.686924,101.727889 C138.351564,101.27437 140.073979,102.26351 140.52576,103.928584 L141.578323,107.809123 C141.796829,108.615812 141.688228,109.459427 141.272502,110.184883 C140.856342,110.909904 140.183015,111.429453 139.376325,111.648393 C139.016203,111.745699 138.653041,111.776108 138.300738,111.746568" id="Fill-102" fill="#E0232F"></path>
                        <path d="M129.290139,113.760773 L129.290139,113.760773 C128.165465,114.065725 127.006038,113.401086 126.701086,112.276412 L125.649392,108.395873 C125.344005,107.271199 126.009079,106.111772 127.133753,105.80682 C128.258427,105.501868 129.417854,106.166507 129.722806,107.291616 L130.7745,111.17172 C131.079887,112.296829 130.414813,113.455821 129.290139,113.760773" id="Fill-104" fill="#FFFFFF"></path>
                        <path d="M127.777845,106.755778 C127.652737,106.745352 127.525456,106.756646 127.400348,106.79053 C127.118853,106.866551 126.884275,107.048132 126.739183,107.300521 C126.594092,107.553779 126.556299,107.847871 126.63232,108.129366 L127.684448,112.00947 C127.760469,112.290964 127.94205,112.525977 128.194874,112.671069 C128.447698,112.815725 128.742659,112.853519 129.02285,112.777498 L129.023284,112.777063 C129.304778,112.701043 129.539791,112.519896 129.684883,112.266638 C129.82954,112.013814 129.867767,111.719722 129.791312,111.438228 L128.739183,107.558123 C128.663162,107.276629 128.482016,107.04205 128.229192,106.896959 C128.088445,106.81616 127.934666,106.76881 127.777845,106.755778 M128.475065,114.843527 C128.025022,114.806169 127.58497,114.6702 127.181407,114.438662 C126.456386,114.022937 125.936403,113.349609 125.717897,112.542919 L124.665769,108.662381 C124.447263,107.855691 124.55543,107.012076 124.971156,106.287055 C125.387315,105.562033 126.060643,105.042485 126.867333,104.823545 C127.673588,104.60417 128.517637,104.713206 129.242224,105.129366 C129.96768,105.545091 130.487663,106.218419 130.706169,107.025109 L131.758297,110.905213 C132.209644,112.570287 131.222242,114.292268 129.556733,114.743614 C129.198784,114.840921 128.833884,114.873501 128.475065,114.843527" id="Fill-106" fill="#E0232F"></path>
                        <path d="M119.470156,116.85682 L119.470156,116.85682 C118.345482,117.161772 117.186056,116.497133 116.881103,115.372459 L115.829409,111.49192 C115.524023,110.367246 116.189096,109.207819 117.313771,108.902867 C118.438445,108.597915 119.597871,109.262554 119.902824,110.387663 L120.954518,114.267767 C121.259904,115.392876 120.594831,116.551868 119.470156,116.85682" id="Fill-108" fill="#FFFFFF"></path>
                        <path d="M117.957472,109.851651 C117.832363,109.841225 117.705517,109.85252 117.580408,109.886403 C117.298914,109.962858 117.064335,110.144005 116.919244,110.396829 C116.774153,110.649652 116.73636,110.943745 116.812381,111.225239 L117.864509,115.105778 C118.022198,115.686577 118.622111,116.032798 119.203345,115.873371 C119.784579,115.716116 120.129062,115.115334 119.971373,114.534535 L118.919244,110.653997 C118.843223,110.372937 118.662076,110.138358 118.408818,109.993267 C118.268071,109.912467 118.114292,109.864683 117.957472,109.851651 M118.660773,117.938532 C117.385361,117.832103 116.251564,116.94331 115.897958,115.638792 L114.84583,111.758688 C114.627324,110.951998 114.735491,110.108384 115.151216,109.382928 C115.567376,108.657906 116.240704,108.138358 117.047394,107.919418 C118.711599,107.468071 120.434883,108.455039 120.886229,110.120982 L121.938358,114.00152 C122.389705,115.66616 121.402302,117.388141 119.736794,117.839922 L119.73636,117.840356 C119.376238,117.938097 119.013076,117.968071 118.660773,117.938532" id="Fill-110" fill="#E0232F"></path>
                    </g>
                </g>
            </g>
        </g>
    </g>
</svg>
